<?xml version="1.0" encoding="UTF-8"?><svg id="b" xmlns="http://www.w3.org/2000/svg" viewBox="0 0 238.49 299.15"><defs><style>.d{fill:#fff;}.e{fill:#b01f29;}.f{fill:#0e0e18;}</style></defs><g id="c"><g><path class="e" d="M119.33,299.15c.8-3.18,33.71-26.7,58.86-41.64,25.15-14.94,50.29-41.96,57.52-66.12,7.22-24.16-1.88-27.97-1.88-27.97-18.73-20.34-18.2-38.46-18.2-38.46-1.61-31.79,21.93-48.04,21.93-48.04L209.47,0c-47.89,50.23-90.16,12.4-90.16,12.4h-.15S76.89,50.23,28.99,.01L.91,76.94s23.54,16.25,21.94,48.03c0,0,.54,18.12-18.19,38.46,0,0-9.1,3.82-1.87,27.97,7.23,24.16,32.38,51.17,57.53,66.11,25.15,14.94,58.06,38.46,58.86,41.64h.15Z"/><path class="f" d="M119.33,299.15c.8-3.18,33.71-26.7,58.86-41.64,25.15-14.94,50.29-41.96,57.52-66.12,7.22-24.16-1.88-27.97-1.88-27.97-18.73-20.34-18.2-38.46-18.2-38.46-1.61-31.79,21.93-48.04,21.93-48.04l-5.45-14.93S.92,185.37,2.79,191.41c1.67,5.4,4.15,10.99,7.37,16.53,11.14,19.15,30.65,38,50.16,49.58,25.15,14.94,58.06,38.46,58.86,41.64h.15Z"/><path class="f" d="M232.11,61.99L2.79,191.41s4.15,10.99,7.37,16.53"/><path class="d" d="M38.84,170.25l9.77-1.45c.59,4.99,1.78,8.66,3.58,11,1.8,2.34,4.22,3.51,7.27,3.51,3.23,0,5.67-1.04,7.31-3.12,1.64-2.08,2.46-4.52,2.46-7.31,0-1.79-.35-3.31-1.03-4.57-.69-1.26-1.89-2.35-3.61-3.28-1.18-.62-3.85-1.72-8.04-3.3-5.38-2.03-9.16-4.53-11.33-7.49-3.05-4.16-4.58-9.24-4.58-15.23,0-3.86,.72-7.46,2.15-10.82,1.43-3.36,3.5-5.91,6.2-7.67,2.7-1.76,5.96-2.63,9.78-2.63,6.24,0,10.94,2.08,14.09,6.25,3.15,4.17,4.81,9.72,4.97,16.68l-10.04,.67c-.43-3.89-1.35-6.69-2.76-8.39-1.41-1.7-3.53-2.56-6.36-2.56s-5.2,.91-6.85,2.74c-1.06,1.17-1.59,2.74-1.59,4.7,0,1.79,.5,3.32,1.49,4.6,1.27,1.62,4.34,3.3,9.22,5.06,4.88,1.75,8.49,3.57,10.83,5.45,2.34,1.88,4.17,4.44,5.49,7.69,1.32,3.25,1.98,7.27,1.98,12.06,0,4.34-.79,8.4-2.37,12.19-1.58,3.79-3.82,6.6-6.71,8.44-2.89,1.84-6.5,2.76-10.82,2.76-6.28,0-11.11-2.21-14.48-6.63-3.37-4.42-5.38-10.87-6.04-19.34Z"/><path class="d" d="M124.59,139.56l9.73,4.7c-1.49,8.26-3.97,14.4-7.44,18.41-3.47,4.01-7.87,6.02-13.21,6.02-6.6,0-12.03-3.43-16.28-10.3-4.25-6.87-6.38-16.26-6.38-28.17,0-12.6,2.13-22.38,6.41-29.36,4.27-6.97,9.89-10.46,16.85-10.46,6.08,0,11.02,2.74,14.82,8.21,2.26,3.24,3.96,7.88,5.09,13.94l-9.93,3.62c-.59-3.92-1.81-7.02-3.68-9.29-1.87-2.27-4.13-3.41-6.8-3.41-3.68,0-6.67,2.01-8.97,6.04-2.29,4.03-3.44,10.55-3.44,19.57,0,9.57,1.13,16.39,3.39,20.45,2.26,4.06,5.2,6.09,8.82,6.09,2.67,0,4.96-1.29,6.88-3.87,1.92-2.58,3.3-6.64,4.14-12.19Z"/><path class="d" d="M145.34,102.5c0-7.71,.76-14.18,2.27-19.42,1.13-3.85,2.67-7.31,4.63-10.38,1.95-3.06,4.1-5.34,6.42-6.82,3.1-2,6.67-3,10.71-3,7.32,0,13.18,3.46,17.58,10.38,4.4,6.92,6.6,16.54,6.6,28.86,0,12.22-2.18,21.78-6.54,28.68-4.36,6.9-10.19,10.35-17.5,10.35s-13.27-3.43-17.63-10.3c-4.36-6.87-6.55-16.32-6.55-28.37Zm10.34-.52c0,8.57,1.3,15.07,3.9,19.49,2.6,4.42,5.9,6.63,9.9,6.63s7.28-2.2,9.85-6.58c2.56-4.39,3.85-10.97,3.85-19.75s-1.25-15.15-3.75-19.42c-2.5-4.27-5.82-6.4-9.95-6.4s-7.47,2.16-10,6.48c-2.53,4.32-3.8,10.84-3.8,19.54Z"/></g></g></svg>