<svg xmlns="http://www.w3.org/2000/svg" xmlns:xlink="http://www.w3.org/1999/xlink" viewBox="0 0 494.55 405.69"><defs><symbol id="a" overflow="visible"><path d="M5.375-9.6406c.707-.8399 1.0781-1.6953 1.1094-2.5625.0273-.8711-.211-1.7735-.7188-2.7032-.5-.9257-1.2422-1.8906-2.2187-2.8906-.9805-1.0078-2.129-2.0625-3.4375-3.1562-1.3008-1.082-2.5235-2.0157-3.6719-2.7969-1.1523-.789-2.2383-1.3516-3.25-1.6875-1.0078-.3398-1.9375-.418-2.7813-.2344-.8515.1875-1.6328.707-2.3437 1.5469-.6953.836-1.0625 1.6914-1.0938 2.5625-.039.8672.1954 1.7695.7032 2.7031.5117.9297 1.2539 1.8985 2.2187 2.9063.9688 1.0117 2.1055 2.0586 3.4063 3.1406C-5.3906-11.7187-4.1484-10.7773-2.9844-10-1.828-9.2187-.746-8.6602.25-8.3281c1.0078.336 1.9414.4062 2.7969.2187.8515-.1836 1.6289-.6953 2.3281-1.5312ZM2.3594-23.6563c1.5898 1.336 2.9375 2.6797 4.0312 4.0313 1.0899 1.3555 1.879 2.6953 2.3594 4.0156.4766 1.3242.6172 2.6328.4219 3.9219-.1875 1.2813-.789 2.5234-1.7969 3.7188-1 1.1992-2.121 2.0117-3.3594 2.4375-1.2422.4296-2.5586.5273-3.9531.2968-1.3828-.2383-2.832-.7812-4.3438-1.625-1.5195-.8515-3.078-1.9453-4.6718-3.2812-1.6016-1.3399-2.9532-2.6914-4.0469-4.0469-1.0898-1.3633-1.879-2.6953-2.3594-4-.4765-1.3086-.6133-2.6094-.4062-3.8906.211-1.289.8164-2.5352 1.8125-3.7344 1.0117-1.1953 2.1289-2.004 3.3437-2.4219 1.2188-.4258 2.5274-.5195 3.9219-.2812 1.3984.2304 2.8555.7617 4.375 1.5937 1.5117.836 3.0664 1.9258 4.6719 3.2657Zm0 0" style="stroke:none"/></symbol><symbol id="b" overflow="visible"><path d="M9.7813-15.625c.3945.336.6601.586.7968.75.1328.168.164.4102.0938.7188-.1485.8359-.4805 1.7773-1 2.828-.5235 1.043-1.168 2.0235-1.9375 2.9376C6.6289-7.0664 5.414-6.168 4.0938-5.7031c-1.3125.461-2.6954.5625-4.1407.3125-1.457-.2578-2.9453-.8164-4.4687-1.6719-1.5196-.8516-3.0625-1.9297-4.625-3.2344-1.414-1.1836-2.6446-2.4375-3.6875-3.75-1.0508-1.3203-1.8125-2.6718-2.2813-4.0468-.4765-1.3711-.6133-2.754-.4062-4.1407.211-1.3828.8672-2.7383 1.9687-4.0625.5742-.6758 1.1914-1.2539 1.8438-1.7343.6562-.4883 1.2734-.8672 1.8437-1.1407.5742-.2773 1.0742-.461 1.5-.5468.4297-.082.6953-.082.7969 0 .0625.0546.1133.1171.1406.1874.0235.0626.0664.1602.125.2813l.4531 1.1563c.0743.1171.129.246.1563.3906.0313.1484.0117.2617-.0625.3437-.0586.0742-.25.1485-.5625.2188-.3086.0625-.6914.1797-1.1406.3437-.457.1563-.9532.4024-1.4844.7344-.5273.336-1.0469.8008-1.5469 1.3906-.6836.8242-1.086 1.6914-1.2031 2.5938-.1133.8984.0273 1.8242.4219 2.7812.3867.9492 1.0195 1.9414 1.8906 2.9688.875 1.0234 1.9414 2.0586 3.1875 3.1093 1.375 1.1485 2.6992 2.1055 3.9688 2.875 1.2734.7735 2.457 1.3165 3.5468 1.625 1.1016.3125 2.1133.3672 3.0313.1563.9258-.2148 1.7344-.7383 2.4219-1.5625.582-.6953.9921-1.3047 1.2343-1.8281.2383-.5274.3985-.9922.4844-1.3907l-6.2813-5.25-2 2.375c-.1953.2422-.414.2618-.6562.0626l-1.2188-1.0313c-.2382-.1953-.2578-.414-.0625-.6563l3.75-4.4843c.207-.2383.4297-.2578.672-.0625Zm0 0" style="stroke:none"/></symbol><symbol id="c" overflow="visible"><path d="M7.3594-9.0313c.1328.168.1914.2891.1719.3594-.0118.0742-.086.1914-.2188.3438l-1.75 2.1093c-.1367.1563-.246.2422-.3281.25-.086.0118-.211-.0156-.375-.078L-19-17.2345c-.0703-.0195-.1484-.0508-.2344-.0937-.0898-.039-.1601-.0782-.2031-.1094-.0898-.082-.1055-.1797-.0469-.2969.0625-.1133.1016-.2031.1094-.2656l.9531-2c.043-.0586.1172-.1484.2188-.2656.0937-.1211.3242-.086.6875.1093l18.7812 9.3126c.332.1562.7578.3867 1.2813.6875.5273.293 1.0078.5859 1.4375.875l.0625-.047c-.3438-.3515-.7149-.7812-1.1094-1.2812-.3984-.496-.6836-.8672-.8594-1.1093l-12.4843-16.922c-.1211-.1757-.211-.3124-.2657-.4062-.0508-.0898-.039-.1797.0313-.2656.0937-.1133.1758-.1914.2343-.2344l1.797-1.3125c.0546-.0195.1366-.0664.25-.1406.1171-.0703.2265-.0664.328.0156.043.0313.086.086.125.1563.043.0742.082.1445.1094.2031Zm0 0" style="stroke:none"/></symbol><symbol id="d" overflow="visible"><path d="M15.6563 9.1094c1.3515 1.164 2.7421 1.789 4.1718 1.875 1.4258.082 2.9102-.2852 4.4532-1.0938 1.5507-.8047 3.164-1.9922 4.8437-3.5625C30.8008 4.7656 32.5625 2.918 34.4063.797c1.8085-2.0899 3.375-4.0781 4.6874-5.9531 1.3204-1.8829 2.2735-3.6446 2.8594-5.2813.582-1.6445.7305-3.1719.4532-4.5781-.2813-1.4024-1.1016-2.6914-2.4532-3.8594-1.3554-1.1758-2.746-1.8008-4.1718-1.875-1.4297-.082-2.918.2773-4.4688 1.0781-1.543.8047-3.1523 1.9922-4.8281 3.5625-1.668 1.5625-3.4102 3.3946-5.2188 5.4844-1.8437 2.125-3.4297 4.1328-4.75 6.0156-1.3242 1.875-2.2773 3.6367-2.8593 5.2813-.586 1.6445-.7344 3.164-.4532 4.5625.2774 1.4023 1.0977 2.6953 2.4532 3.875ZM38.75 4.5625c-2.2422 2.582-4.4883 4.7422-6.7344 6.4844-2.2422 1.7383-4.457 2.9883-6.6406 3.75-2.1875.7695-4.3398.9648-6.4531.5937-2.1172-.3672-4.1367-1.3828-6.0625-3.0468C10.9219 10.6563 9.621 8.789 8.9687 6.75 8.3125 4.7187 8.1953 2.5547 8.625.2656c.4258-2.289 1.3516-4.6601 2.7813-7.1094 1.4257-2.4453 3.2578-4.9609 5.5-7.5468 2.2382-2.582 4.4882-4.754 6.75-6.5157 2.2578-1.7695 4.4765-3.0195 6.6562-3.75 2.1758-.7382 4.3125-.918 6.4063-.5468 2.0898.375 4.1093 1.4101 6.0468 3.0937 1.9258 1.668 3.2188 3.5117 3.875 5.5313.664 2.0117.7774 4.1601.3438 6.4375-.4297 2.2734-1.3516 4.6484-2.7657 7.125C42.8126-.547 40.9883 1.9766 38.75 4.5625Zm0 0" style="stroke:none"/></symbol><symbol id="e" overflow="visible"><path d="M17.8125 3.4375a14.1005 14.1005 0 0 0 2.9063 1.0156c.996.2266 1.9765.254 2.9374.0781.957-.1796 1.8633-.6328 2.7188-1.3593.8633-.7188 1.629-1.793 2.2969-3.2188.6523-1.3945.9765-2.6562.9687-3.7812 0-1.1328-.2265-2.1485-.6718-3.0469-.4493-.9023-1.1016-1.6875-1.9532-2.3438-.8437-.6523-1.7695-1.2187-2.7656-1.6875l-5.3281-2.5156L12.203.797ZM24.875-15.375c.8398.4063 1.7422.7422 2.7031 1 .957.2617 1.9375.3125 2.9375.1563.9961-.1641 1.9727-.625 2.9219-1.375.9453-.7579 1.8203-1.9883 2.625-3.6875.6016-1.2696.914-2.3829.9375-3.3438.0313-.957-.164-1.7813-.5781-2.4688-.4063-.6835-.9649-1.2812-1.6719-1.7812-.6992-.496-1.4766-.9453-2.3281-1.3438l-5.3282-2.5156L20.75-17.3125Zm9.5781-16.8594c1.082.5117 2.254 1.1524 3.5157 1.9219 1.2695.7617 2.3476 1.7305 3.2343 2.9063.8828 1.168 1.4219 2.5742 1.6094 4.2187.1953 1.6484-.2383 3.5898-1.2969 5.8281-.711 1.5117-1.5351 2.707-2.4687 3.5782-.9375.875-1.8867 1.5546-2.8438 2.0312-.9492.4688-1.8554.7734-2.7187.9063-.8555.1367-1.5742.2109-2.1563.2187.6328.5742 1.2735 1.254 1.9219 2.0313.6445.7734 1.1484 1.6953 1.5156 2.7656.3633 1.0742.504 2.3008.4219 3.6719-.0742 1.375-.5352 2.953-1.375 4.7343-.5625 1.1953-1.207 2.2031-1.9219 3.0156-.7187.8204-1.4414 1.4922-2.1562 2.0157-.7188.5273-1.4258.9414-2.1094 1.2344-.6797.3007-1.2617.5234-1.75.6718-1.586.4336-3.2695.3867-5.0469-.1406-1.7734-.5313-3.8164-1.3477-6.125-2.4375L6.25 2.9531c-.4688-.2187-.5938-.5586-.375-1.0156l18.0469-38.2813c.2148-.457.5625-.5742 1.0312-.3593Zm0 0" style="stroke:none"/></symbol><symbol id="f" overflow="visible"><path d="M26.5 7.25c-.1172.3633-.254.5703-.4063.625-.1484.0586-.3828.043-.703-.0469L6.5468 2.0156c-.4922-.1484-.664-.4648-.5156-.9531L18.5-39.375c.1445-.4766.461-.6445.9531-.5l19.0157 5.8594c.332.1054.5351.2148.6093.3281.0703.1172.0977.211.0782.2813-.0235.0859-.082.207-.172.3593-.0937.1563-.1796.2852-.25.375l-1.6405 2.3125c-.1797.2617-.336.3985-.4688.4063-.1367 0-.3516-.0469-.6406-.1407l-13.5625-4.1718-4.1875 13.5625 11.9843 3.6875c.332.1054.5313.2304.5938.375.0703.1367.0547.3672-.0469.6875l-.8281 2.6875c-.0938.336-.211.539-.3438.6093-.125.0625-.3554.043-.6874-.0625l-11.9844-3.6875L12.1562-.9375l14.672 4.5156c.4882.1524.66.457.5156.9063Zm0 0" style="stroke:none"/></symbol><symbol id="g" overflow="visible"><path d="M31.0156 5.1563c.0899.3828.129.6406.1094.7656-.043.207-.3086.3008-.7969.2812l-4.0937-.0312c-.4805 0-.7578-.2266-.8282-.6719L19.047-16.5469l-4.5157-.9062L10.7657 1.375c-.1054.496-.414.6953-.9218.5938L6.2188 1.25c-.5118-.1055-.7149-.4102-.6094-.9063l8.3125-41.4843c.0898-.4961.3945-.6953.9062-.5938l9.7188 1.9375c1.207.25 2.539.6016 4 1.0469 1.4648.4375 2.7656 1.1523 3.8906 2.1406 1.1328.9805 1.9844 2.336 2.5469 4.0625.5586 1.7188.5664 3.9649.0156 6.7344-.3438 1.7188-.9258 3.1836-1.7344 4.3906-.8047 1.211-1.707 2.207-2.7031 2.9844-1 .7734-2.0508 1.3555-3.1406 1.75-1.086.3867-2.0899.6367-3.0157.75Zm-11.6093-25.875c1.1757.2421 2.3164.3789 3.4218.4062 1.1133.0234 2.1328-.1602 3.0625-.5469.9258-.3828 1.7266-1.0351 2.4063-1.9531.6836-.9258 1.1953-2.2266 1.5312-3.9063.3516-1.7578.3711-3.1718.0625-4.2343-.3047-1.0586-.8086-1.8985-1.5156-2.5157-.6992-.621-1.5234-1.0703-2.4688-1.3437-.9374-.2773-1.8515-.5078-2.7343-.6875l-4.8282-.9688-3 14.9376Zm0 0" style="stroke:none"/></symbol><symbol id="h" overflow="visible"><path d="M11.3594.4219c-.0547.3828-.1524.6172-.2969.7031-.1367.0898-.3672.1172-.6875.0781L6.7969.797C6.2852.7344 6.0625.4453 6.125-.0625l4.8906-42.0156c.0586-.5078.3477-.7305.8594-.6719l19.7656 2.2969c.3399.043.5625.1172.6563.2187.0898.0938.1289.207.1093.3282l-.2656.7343-1.1875 2.5625c-.0547.086-.0976.1602-.125.2188-.0312.0625-.121.1328-.2656.2031-.125.0625-.3398.0781-.6406.0469l-14.1094-1.6407-1.6563 14.1094 12.4688 1.4532c.332.043.5469.1289.6406.25.0899.1171.1172.3398.0782.6718L27.0156-18.5c-.043.3438-.121.5664-.2343.6563-.1172.0937-.3399.121-.672.078l-12.4687-1.453Zm0 0" style="stroke:none"/></symbol><symbol id="i" overflow="visible"><path d="M23.625-52.5313c.0273-.9257.3906-1.707 1.0781-2.3437.6836-.6328 1.504-.9375 2.4532-.9063.9335.043 1.7226.4102 2.3593 1.0938.6328.6875.9336 1.496.9063 2.4219-.043.9375-.4102 1.7265-1.0938 2.3593-.6797.6368-1.4883.9336-2.4218.8907-.9493-.0313-1.7461-.3907-2.3907-1.0782-.6367-.6835-.9336-1.5-.8906-2.4374Zm-5.8125-.2187c-.043.9375-.3984 1.7305-1.0625 2.375-.6563.6367-1.4766.9336-2.4531.8906-.9375-.0312-1.7266-.3906-2.3594-1.0781-.6367-.6836-.9336-1.5-.8906-2.4375.0273-.9258.3828-1.707 1.0625-2.3438.6836-.6328 1.5-.9374 2.4375-.9062.9765.043 1.7734.4102 2.3906 1.0938.6133.6796.9023 1.4804.875 2.4062Zm15.25 42.2188c-.1367 3.8359-1.371 6.8632-3.7031 9.078-2.3242 2.215-5.9414 3.2305-10.8438 3.047-2.4375-.0938-4.4765-.4727-6.1093-1.125-1.6368-.6524-2.9727-1.547-4-2.672-1.0235-1.1327-1.7422-2.5-2.1563-4.0937-.4063-1.5898-.5742-3.3476-.5-5.2656l1.1875-31.2813c.0195-.5078.2852-.7539.7969-.7343l3.7187.1406c.5078.0117.754.2734.7344.7813L11.0156-11.5c-.0547 1.3125.0352 2.504.2657 3.5625.2265 1.0547.6484 1.9648 1.2656 2.7344.6133.7734 1.4258 1.371 2.4375 1.7969 1.0078.4296 2.2578.668 3.75.7187 2.9453.1172 5.1718-.4844 6.6718-1.7969 1.4961-1.3086 2.3047-3.4375 2.422-6.375L29-42.0156c.0195-.5078.2852-.754.7969-.7344l3.7187.1406c.5078.0235.754.289.7344.7969Zm0 0" style="stroke:none"/></symbol><symbol id="j" overflow="visible"><path d="M27.2656-5.5156c.5078-.0196.7696.1445.7813.4844.0078.125-.0196.2578-.0782.3906-.0546.125-.1015.2734-.1406.4375l-.7968 2.4844c-.1563.4687-.4922.7148-1 .7343L6.7187-.25c-.5117.0234-.7773-.2227-.7968-.7344L4.328-43.2656c-.0234-.5078.2227-.7735.7344-.7969l3.7188-.1406c.496-.0196.7578.2265.7812.7343l1.4531 38.5626Zm0 0" style="stroke:none"/></symbol><symbol id="k" overflow="visible"><path d="M26.8125-7.3906c.5078-.0508.7852.0898.8281.4219.0078.125-.0117.2578-.0625.3906-.043.1367-.0742.293-.0937.4687l-.6407 2.5156c-.125.4922-.4453.7618-.953.8125L6.6874-.7188c-.5117.0547-.793-.1757-.8438-.6875L1.3281-43.4686c-.0625-.5079.1602-.7891.6719-.8438l3.6875-.3906c.5078-.0586.7969.164.8594.6718l4.1094 38.375Zm0 0" style="stroke:none"/></symbol><symbol id="l" overflow="visible"><path d="M16.4063-7.7656c1.0195-.1953 2-.4922 2.9374-.8906.9336-.3946 1.7383-.9454 2.4063-1.6563.664-.7148 1.1328-1.625 1.4063-2.7188.2695-1.0898.2539-2.414-.047-3.9687-.2929-1.5078-.7773-2.7188-1.453-3.625-.6797-.9023-1.4649-1.586-2.3594-2.0469-.8985-.457-1.8828-.7031-2.9532-.7343a15.1132 15.1132 0 0 0-3.2343.2656l-5.7813 1.125 3 15.4375Zm-5.4376-19.3438c.9258-.1758 1.8477-.4414 2.7657-.7968.9258-.3633 1.7422-.9063 2.4531-1.625.7148-.7149 1.2344-1.6602 1.5469-2.8282.3203-1.1758.3008-2.6797-.0625-4.5156-.2617-1.3828-.664-2.4688-1.2032-3.25-.543-.789-1.1835-1.336-1.9218-1.6406-.7422-.3086-1.543-.461-2.4063-.4532-.8672.0118-1.7578.1055-2.6718.2813l-5.7813 1.125 2.8281 14.5781ZM8.7344-46.3437c1.164-.2266 2.4843-.4102 3.9531-.547 1.4648-.1327 2.9063.0118 4.3125.4376 1.414.418 2.6875 1.2383 3.8125 2.4531 1.1328 1.211 1.9375 3.0273 2.4063 5.4531.3203 1.6367.3632 3.086.125 4.3438-.2422 1.2617-.6055 2.3672-1.0938 3.3125-.4805.9492-1.0352 1.7304-1.6563 2.3437-.6171.6172-1.1484 1.1016-1.5937 1.4532.8398.0937 1.754.2695 2.7344.5156.9765.2422 1.9297.6836 2.8593 1.3281.9336.6484 1.7735 1.5508 2.5157 2.7031.746 1.1563 1.3125 2.6992 1.6875 4.625.2578 1.3047.336 2.4961.2343 3.5782-.0937 1.0859-.2773 2.0546-.5468 2.9062-.2735.8555-.5977 1.6055-.9688 2.25-.375.6367-.7226 1.1602-1.0312 1.5625-1.0117 1.293-2.3946 2.254-4.1407 2.875-1.75.6172-3.8828 1.168-6.3906 1.6563L6.7813-1.3126c-.5.0938-.8008-.1094-.8907-.6094l-8.0781-41.531c-.0898-.4961.1133-.7969.6094-.8907Zm0 0" style="stroke:none"/></symbol><symbol id="m" overflow="visible"><path d="M31.5313-11.3281c.1328.1797.25.3476.3437.5.1016.1484.2031.293.2969.4375.0703.25-.1836.4648-.7657.6406L27.625-8.5781c-.3672.1172-.6367.1367-.8125.0625-.1797-.082-.3398-.211-.4844-.3907l-7.1093-10.7343L6.703-15.75l.5625 12.7656c-.0234.2188-.0898.418-.2031.5938-.1055.168-.3398.3086-.7031.4219L2.5625-.797C2-.6172 1.6797-.6562 1.6094-.9062a14.0311 14.0311 0 0 0-.0469-.5157 3.6164 3.6164 0 0 1 .0156-.6094l-.125-43.5937c-.0117-.332.0196-.5469.0938-.6406.082-.1016.2851-.207.6094-.3125l3.5937-1.125c.246-.0703.4453-.0938.5938-.0625.1445.0312.332.1836.5625.4531ZM8.8906-35.9375c-.543-.8633-1.1133-1.7695-1.7031-2.7188-.586-.957-1.0898-1.8359-1.5156-2.6406l-.1094.0313c.0273.3984.082.8554.1563 1.375.0703.5234.125 1.0664.1562 1.625.039.5625.082 1.1328.125 1.7031.0508.5625.0703 1.0664.0625 1.5l.4688 14.6719 10.203-3.1719Zm0 0" style="stroke:none"/></symbol><symbol id="n" overflow="visible"><path d="M23.1719-16.2969c.371.1992.6133.414.7187.6407.1133.2421.043.7265-.2031 1.453-.25.7188-.6914 1.5196-1.3125 2.3907-.6172.875-1.3984 1.7734-2.3438 2.6875-.9374.918-2.043 1.6797-3.3124 2.2813-2.4688 1.1562-4.8047 1.6054-7 1.3437C7.5194-5.7695 5.4492-6.6016 3.5156-8 1.586-9.4023-.203-11.2734-1.8594-13.6094c-1.6523-2.332-3.1914-5.0078-4.6094-8.0312-1.2773-2.7266-2.289-5.414-3.0312-8.0625-.746-2.6524-1.0664-5.1407-.9531-7.4532.1172-2.3203.7539-4.4101 1.9062-6.2656 1.1563-1.8515 2.9922-3.3672 5.5-4.5468 1.2813-.6016 2.5703-.9727 3.8594-1.1094 1.3008-.1328 2.4883-.1602 3.5625-.0782 1.0703.0743 1.9688.254 2.6875.5313.7148.2813 1.129.539 1.2344.7656.1328.2735.1484.5977.0468.9688L7.8594-44.75c-.086.418-.207.664-.3594.7344-.1172.0547-.4727.0078-1.0625-.1407-.586-.1523-1.3047-.3007-2.1563-.4374-.8437-.1446-1.746-.207-2.703-.1876-.9493.0235-1.8438.2305-2.6876.625-1.582.75-2.7031 1.7305-3.3594 2.9376-.664 1.1992-.9726 2.6132-.9218 4.2343.0547 1.625.4258 3.4727 1.1094 5.5313.6796 2.0547 1.6015 4.3203 2.7656 6.7968 1.25 2.6563 2.5351 5.0079 3.8594 7.047 1.332 2.0429 2.6875 3.6835 4.0625 4.9218 1.3828 1.2422 2.8007 2.043 4.25 2.4063 1.4453.3554 2.8984.1875 4.3593-.5.8516-.3946 1.5938-.9532 2.2188-1.672.621-.7148 1.1484-1.4452 1.5781-2.1874.4336-.7461.7852-1.3985 1.0469-1.9532.2578-.5507.4453-.8515.5625-.9062.0703-.039.1953-.0234.375.0469.1758.0625.3164.1133.4218.1406Zm0 0" style="stroke:none"/></symbol><symbol id="o" overflow="visible"><path d="M-4.5-23.0313 8.2031-7.875c.3203.3984.2852.7617-.1093 1.0938L5.25-4.3906c-.3984.3242-.7578.289-1.0781-.1094L-23-36.9219c-.332-.3945-.3008-.7539.0938-1.0781l2.8437-2.3906c.3984-.332.7617-.3008 1.0938.0937l11.578 13.8282L5.2188-37.0314l-11.578-13.828c-.3321-.3946-.3048-.754.078-1.0782l2.8438-2.375c.3984-.3398.7617-.3164 1.0938.0781l27.1716 32.422c.3203.3984.2852.7695-.1093 1.1094l-2.8438 2.375c-.3867.3242-.7422.289-1.0625-.1094L8.1094-33.5938Zm0 0" style="stroke:none"/></symbol></defs><path d="M322.3906 310.3672c1.2735-3.0235 37.3594-21.2969 64.4766-32.2617 27.121-10.9649 56.0664-33.8672 66.8594-56.6563 10.793-22.7851 2.3789-27.9336 2.3789-27.9336-15.4336-22.9414-12.168-40.7695-12.168-40.7695 3.2227-31.6602 28.9492-44.168 28.9492-44.168L456.754 28.297c-54.9336 42.3984-91-1.3828-91-1.3828l-.1523-.0235S318.0937 57.8867 278.3516 1l-39.4024 71.789s20.8164 19.625 14.4219 50.8047c0 0-2.211 17.9883-23.8008 35.2657 0 0-9.5664 2.3945-6.082 27.3672 3.4883 24.9726 24.2617 55.4843 46.8633 74.0547 22.6015 18.5703 51.5703 46.7968 51.8828 50.0625" style="stroke:none;fill-rule:nonzero;fill:#c9cacc;fill-opacity:1"/><path d="M3223.9063 953.2281c12.7343 30.2344 373.5937 212.9688 644.7656 322.6172 271.211 109.6485 560.664 338.6719 668.5937 566.5625 107.9297 227.8516 23.789 279.336 23.789 279.336-154.3359 229.414-121.6796 407.6953-121.6796 407.6953 32.2266 316.6015 289.4922 441.6797 289.4922 441.6797l-161.3281 802.8124c-549.336-423.9843-910 13.8282-910 13.8282l-1.5235.2344s-475.0781-309.961-872.5 258.9062l-394.0234-717.8906s208.164-196.25 144.2187-508.0469c0 0-22.1093-179.8828-238.0078-352.6563 0 0-95.664-23.9453-60.8203-273.6718 34.8828-249.7266 242.6172-554.8438 468.6328-740.5469 226.0156-185.7031 515.7031-467.9688 518.8281-500.625Zm0 0" style="fill:none;stroke-width:20;stroke-linecap:square;stroke-linejoin:round;stroke:#231f20;stroke-opacity:1;stroke-miterlimit:10" transform="matrix(.1 0 0 -.1 0 405.69)"/><path d="m282.7969 201.3164-6.75.9961-1.0977-4.8594-1.0351-.1719-2.8477-60.3867 4.8242-.8906-.6172-3.9297-15.2265 2.125.5469 4.3399 6.957-.957 4.1953 59.9726-1.207.8633-.1055 4.4414-11.3711 1.9219 2.289 26.9335 14.332-3.121 8.0782-22.8672" style="stroke:none;fill-rule:nonzero;fill:#fff;fill-opacity:1"/><path d="m2827.9688 2043.736-67.5-9.961-10.9766 48.5938-10.3516 1.7187-28.4765 603.8672 48.2422 8.9062-6.172 39.297-152.2656-21.25 5.4688-43.3985 69.5703 9.5703 41.9531-599.7266-12.0703-8.6328-1.0547-44.414-113.7109-19.2188 22.8906-269.336 143.3203 31.211 80.7813 228.6719Zm0 0" style="fill:none;stroke-width:12.54;stroke-linecap:square;stroke-linejoin:round;stroke:#231f20;stroke-opacity:1;stroke-miterlimit:4" transform="matrix(.1 0 0 -.1 0 405.69)"/><path d="M317.125 85.121c-1.4531 8.6759 4.8164 16.9532 14.0078 18.4923 9.1836 1.539 17.8086-4.2461 19.2617-12.918 1.4532-8.6758-4.8203-16.9531-14.0039-18.4922-9.1875-1.539-17.8125 4.2461-19.2656 12.918m53.4102 68.0039-22.1172-43.004-36.7852-6.16-49.668 44.1562 4.4375 6.4805L302 134.8516l-26.8008 92.8125-17.5 3.0156.0664 3.414 26.3828 4.8399 29.0391-50.375 32.957-34.418-2.2617-13.125 10.5977 10.2696" style="stroke:none;fill-rule:nonzero;fill:#231f20;fill-opacity:1"/><path d="M360.6914 91.3555c-2.6523 15.8632 8.2383 30.9062 24.332 33.6015 16.0938 2.6953 31.2891-7.9804 33.9454-23.8476 2.6562-15.8633-8.2344-30.9063-24.3282-33.6016-16.0937-2.6953-31.293 7.9805-33.9492 23.8477" style="stroke:none;fill-rule:nonzero;fill:#b01f29;fill-opacity:1"/><path d="M4076.211 3319.7125s-13.711 83.0469 6.953 105.039c0 0-67.1484-33.3593-68.5546-54.3359 0 0-27.1875 66.1328-19.5703 86.0938 0 0-46.5235-49.5703-48.5938-74.6875 0 0-33.0469 81.9922-47.8515 95.1172l-35.1954-70.625s-53.0078 51.3672-71.6015 54.4922c0 0-16.211-58.8672-15.5469-80.2344 0 0-73.3594 31.4062-87.8125 33.789 0 0 8.5547-63.0468 5.7813-79.5703-2.7735-16.5234-100.9376-6.4453-108.4766-.9375 0 0 41.9531-66.5234 49.1797-74.1015l-107.1485-30.8985s47.1485-61.0156 77.461-70.3515c0 0-75.5078-57.461-98.9063-57.7735l97.7735-50.3906s-75.4688-44.7266-83.047-64.6875c0 0 84.0235-5.5469 97.461-1.4453l-21.0937-100.5469s69.5703-3.164 87.1875 13.0078l-16.6016-111.9531 86.7969 36.4844 48.2422-16.6016 7.8906-41.6797 17.8906-32.7343s57.2266 49.9218 54.1016 69.5312c0 0 50.9375-76.4844 72.9687-84.414 0 0 41.3672 69.5312 29.336 99.1796 0 0 40.9765-47.2656 77.8515-55.5468 0 0 30.3516 67.1874 9.336 94.0624 0 0 78.8672-36.6015 104.375-36.6015l-34.414 86.4844s81.6405 5.4687 98.5155 4.7265l-71.914 77.9297s118.5156 35.3906 125.0781 49.1406c6.5234 13.7891-77.461 57.5782-77.461 57.5782l72.0313 49.5703s-65.0781 42.7734-94.0234 34.8437c0 0 43.125 79.8828 45.1953 92.2657 2.0703 12.4218-76.4453.1171-94.0234-3.3594-17.5782-3.4375 20.039 94.375 20.039 94.375Zm0 0" style="fill:none;stroke-width:25.08;stroke-linecap:square;stroke-linejoin:round;stroke:#231f20;stroke-opacity:1;stroke-miterlimit:4" transform="matrix(.1 0 0 -.1 0 405.69)"/><path d="m363.2383 156.4805-.5274-3.7266c-1.4023-9.871 7.8399-27.2305 8.8985-29.1797l1.7969-3.3047 6.6093 3.5938-1.7969 3.3047c-3.5351 6.5156-8.8515 18.9375-8.0585 24.5273l.5273 3.7266" style="stroke:none;fill-rule:nonzero;fill:#231f20;fill-opacity:1"/><path d="m315.9258 143.414-7.1211 61.8282c-.211 1.3203-.3633 2.6406-.4531 3.9492-.4688 6.6484.5625 13.1133 2.8359 19.0313 5.4766 14.2656 18.1406 25.3437 34.3008 28.0507 16.1601 2.7032 31.7422-3.6445 41.5664-15.3476 4.0742-4.8555 7.1601-10.6328 8.8828-17.0664.336-1.2696 14.2617-64.6602 14.2617-64.6602" style="stroke:none;fill-rule:nonzero;fill:#0091c8;fill-opacity:1"/><path d="M317.2266 236.8125s.125-.461.203-.9258c.0782-.4687.59.4805.59.4805s.2382-.0078.3866-.6055c.1485-.5976.668-1.1328.668-1.1328s-.1015.8906.0352 1.2031c.1406.3125.4453.5078.4453.5078l.4648-.7851.2032.2266.2421.2773s.5782-.6211.711-1.125c.1328-.504.4336-.5938.4336-.5938l.164.7422 1.0079-1.168.3906 1.1133.5039-.1523.1797-.5.6289.25.75.082s-.2383-1.4336.1406-1.6992l.6836 1.3555.496-.6836.3517-.6602.5468-.4336.289 1.1524.668.5898.5743-.8633.582.5274s.6524-1.6133 1.0234-1.836c0 0-.0468 1.7149.1875 1.754.2305.039.504-1.0196.504-1.0196l.8789.4844s.5117-1.0664.9765-1.2734c0 0-.4219 1.078.332 1.4414.754.3672.7461-.7344.7461-.7344l.504.707.4882-.6367.8555-1.1016.2227.9493.5976-.7149.1172.7383.8555-1.3867-.0078 1.4804.496-.1093.2383-.8711.2578 1.3398.6329-.6601.8867-.4258.4883-.3477s-.2266.4883.0078 1.0977c.2343.6133.5664-.5274.5664-.5274l.3906-.6015s.3086.7187.2695.9492c-.039.2344.5352.5234.5352.5234l.668-.2734.5039-.4375.203-.6367s.5352.5195.4806.8476c-.0586.3243.3789.875.3789.875l.4726-.832.5508.4297.5977.4336.375-.7969 1.0898.3242.0156.7696.039.625.7852-1.254.3985.7852.7422-.7383.0234.7188.8477.0976.4336-.5976.2617.711.3398.8241s.375-1.371.2656-1.582c0 0 .9297 1.0156.6446 1.5938 0 0 .3789-1.1329.6367-1.2344 0 0 .1953 1.418.4101 1.5508.2149.1328.7305.2187.7305.2187l.6797-.0781.3516.4922 1.3125-.1172.9687-.3633.2969.5274 1.0625-.3477s.0898.5898.1758.9375c.086.3476.5117.375.5117.375l.8008-.4883s.9258-.9453 1.668-.5312c0 0-1.1641.9492-.879 1.5234 0 0 .832-.6719 1.0586-.5898 0 0 .1836.6054.1446.8398-.0391.2344.7617-.543.7617-.543s.0156 1.0547.082 1.211c.0703.1562.3281.3437.3281.3437s.836-.4375 1.1954-.5703c.3554-.1289.9687-.3633.9687-.3633s-.6758.6055-.6758.8946c0 .2851.1953.5585.1953.5585s.6993-.746.7149-.5507c.0117.1953-.082.7539-.082.7539s1.3203.4101 1.0976-.25l.0938.8789.7968-.4883s-.1875 1.1172-.0078 1.4805l.7617-.2578s1.0274-.7305 1.4961-.6524c0 0-.5742 1.4297-.4219 1.6484.1563.2149.9102.0079.9102.0079l1.2266.1093-.4063.7032.6797.4922-.1445.5976s1.211-.086 1.4804-.2773c.2735-.1914.418-.504.75-.4493.3243.0547-.5.6797-.7656 1.1172-.2617.4336.9766-.4101 1.3203-.4492 0 0-.7656.879-.6953 1.0313.0664.1562 1.2617-.125 1.2617-.125l.6758-.0274s-.9219.3711-.793 1.0156c0 0 .6211.293.8047.3243.1914.0312-.164.4062-.164.4062l.8867.1484s.871.5274.668.5899c-.1993.0625-.6524.1758-.6524.1758l.8164.2812.3711.6328s-13.8047 11.5703-34.1484 7.875c0 0-18.004-3.0625-27.414-18.3242 0 0-.1563-1.0742.5898-.9492" style="stroke:none;fill-rule:nonzero;fill:#ffcb04;fill-opacity:1"/><path d="M3172.2656 1688.775s1.25 4.6094 2.0313 9.2578c.7812 4.6875 5.8984-4.8047 5.8984-4.8047s2.3828.0782 3.8672 6.0547c1.4844 5.9766 6.6797 11.3281 6.6797 11.3281s-1.0156-8.9062.3515-12.0312c1.4063-3.125 4.4532-5.0781 4.4532-5.0781l4.6484 7.8515 2.0313-2.2656 2.4218-2.7734s5.7813 6.2109 7.1094 11.25c1.3281 5.039 4.336 5.9375 4.336 5.9375l1.6406-7.422 10.0781 11.6798 3.9063-11.1328 5.039 1.5234 1.7969 5 6.289-2.5 7.5-.8203s-2.3828 14.336 1.4063 16.9922l6.836-13.5547 4.9609 6.836 3.5156 6.6015 5.4688 4.336 2.8906-11.5235 6.6797-5.8984 5.7422 8.6328 5.8203-5.2735s6.5234 16.1328 10.2343 18.3594c0 0-.4687-17.1484 1.875-17.539 2.3047-.3907 5.0391 10.1952 5.0391 10.1952l8.789-4.8437s5.1172 10.664 9.7657 12.7344c0 0-4.2188-10.7813 3.3203-14.414 7.539-3.672 7.461 7.3437 7.461 7.3437l5.039-7.0703 4.8828 6.3671 8.5547 11.0157 2.2266-9.4922 5.9765 7.1484L3370 1729.4l8.5547 13.8672-.0781-14.8047 4.9609 1.0938 2.3828 8.7109 2.5781-13.3984 6.3282 6.6015 8.8672 4.2578 4.8828 3.4766s-2.2657-4.8828.078-10.9766c2.3438-6.1328 5.6642 5.2735 5.6642 5.2735l3.9062 6.0156s3.086-7.1875 2.6953-9.4922c-.3906-2.3438 5.3516-5.2344 5.3516-5.2344l6.6797 2.7344 5.039 4.375 2.0313 6.3672s5.3515-5.1953 4.8047-8.4766c-.586-3.2422 3.789-8.75 3.789-8.75l4.7266 8.3203 5.5078-4.2968 5.9766-4.336 3.75 7.9688 10.8984-3.2422.1563-7.6953.3906-6.25 7.8515 12.539 3.9844-7.8515 7.4219 7.3828.2344-7.1875 8.4765-.9766 4.336 5.9766 2.6172-7.1094 3.3984-8.2422s3.75 13.711 2.6562 15.8203c0 0 9.297-10.1562 6.4453-15.9375 0 0 3.7891 11.3282 6.3672 12.3438 0 0 1.9532-14.1797 4.1016-15.5078 2.1484-1.3281 7.3047-2.1875 7.3047-2.1875l6.7969.7812 3.5156-4.9218 13.125 1.1718 9.6875 3.6328 2.9687-5.2734 10.625 3.4766s.8985-5.8985 1.7578-9.375c.8594-3.4766 5.1172-3.75 5.1172-3.75l8.0078 4.8828s9.2579 9.4531 16.6797 5.3125c0 0-11.6406-9.4922-8.789-15.2344 0 0 8.3203 6.7188 10.586 5.8984 0 0 1.8358-6.0546 1.4452-8.3984-.3906-2.3438 7.6172 5.4297 7.6172 5.4297s.1563-10.5469.8203-12.1094c.7031-1.5625 3.2813-3.4375 3.2813-3.4375s8.3594 4.375 11.9531 5.7031c3.5547 1.2891 9.6875 3.6329 9.6875 3.6329s-6.7578-6.0547-6.7578-8.9454c0-2.8515 1.9531-5.5859 1.9531-5.5859s6.9922 7.461 7.1485 5.5078c.1171-1.9531-.8204-7.539-.8204-7.539s13.2032-4.1016 10.9766 2.5l.9375-8.7891 7.9688 4.8828s-1.875-11.1719-.0782-14.8047l7.6172 2.5781s10.2735 7.3047 14.961 6.5235c0 0-5.7422-14.2969-4.2188-16.4844 1.5625-2.1484 9.1016-.0781 9.1016-.0781l12.2656-1.0938-4.0625-7.0312 6.7969-4.9219-1.4453-5.9766s12.1093.8594 14.8046 2.7735c2.7344 1.914 4.1797 5.039 7.5 4.4922 3.2422-.547-5-6.797-7.6562-11.172-2.6172-4.3358 9.7656 4.1017 13.2031 4.4923 0 0-7.6562-8.789-6.9531-10.3125.664-1.5625 12.6172 1.25 12.6172 1.25l6.7578.2734s-9.2188-3.711-7.9297-10.1562c0 0 6.211-2.9297 8.0469-3.2422 1.914-.3125-1.6406-4.0625-1.6406-4.0625l8.8671-1.4844s8.711-5.2734 6.6797-5.8984c-1.9922-.625-6.5234-1.7578-6.5234-1.7578l8.164-2.8125 3.711-6.3282s-138.0469-115.7031-341.4844-78.75c0 0-180.039 30.625-274.1406 183.2422 0 0-1.5625 10.7422 5.8984 9.4922Zm0 0" style="fill:none;stroke-width:2.69;stroke-linecap:square;stroke-linejoin:round;stroke:#231f20;stroke-opacity:1;stroke-miterlimit:4" transform="matrix(.1 0 0 -.1 0 405.69)"/><path d="M3374.1016 1677.1734s3.4765-7.1093 1.953-10.5859c0 0 10.4688 17.8516 17.3438 17.1484m-88.2421-89.6875s7.1874 12.3047 16.0156 12.2657m-28.5547 1.9531s10.4297-4.5313 8.9062-13.5938m-.1171 69.0626s-13.75-1.4454-13.5938-11.7188m-7.9687 11.1328s5.2343-2.3047 4.3359-7.7344m161.4063-80.7031s6.4062-6.211 4.8828-18.0469m5.4687 10.2734s2.1875-3.6327-1.0938-9.1406m23.3985 14.2579s-15.5078-3.4766-15-14.297m-98.6719 29.1017s8.4766-5.1173 7.1875-12.8516m86.836 100.7031s6.875-6.289 5.664-13.5547m-6.4453 6.211s3.3203.3906 3.0469-4.2579m-52.1875-27.6171s7.8906-5.5079 5.3125-15.3516m18.6328 5.2734s-7.9688-.0781-8.4766-6.0156m149.8438 31.3281s4.4531-6.836 2.6953-14.4531m28.3203 4.5703s-9.7656-2.539-9.7656-8.125m-104.336 34.2187s-7.8906.3907-6.6015-5.8593m43.2421-109.4141s11.7188-5.2343 10.1954-14.2968m8.0078 6.0937s-5.4297.9375-6.3281-4.4531m103.9843 74.9219s11.5625-6.1329 10.3907-15.7422m-53.5547-38.5938s7.8125-.8594 6.5625-10.9375m-75.9375 61.7188s-6.289-4.1016-6.289-6.875" style="fill:none;stroke-width:2.63;stroke-linecap:square;stroke-linejoin:round;stroke:#231f20;stroke-opacity:1;stroke-miterlimit:4" transform="matrix(.1 0 0 -.1 0 405.69)"/><path d="M348.2266 229.0586s-1.504 1.918-1.4961 2.7226c.0078.8047.1289 1.7696.3125 2.086.1797.3086 1.3945.418 2.1875.1719.7968-.2422 1.3242-.5782 1.7539-.8868.4297-.3046 1.1797-.5546.9258-1.0234-.254-.4648-.2813-1.1328-.3516-1.5664-.0703-.4375-.375-.8672-.375-.8672s-.418-.5898-.5938-.3789c-.1757.207-.5078-.371-.8125-.2344-.3086.1368-1.5507-.0234-1.5507-.0234" style="stroke:none;fill-rule:nonzero;fill:#ffcb04;fill-opacity:1"/><path d="M3482.2656 1766.314s-15.039-19.1796-14.961-27.2265c.0782-8.0469 1.2892-17.6953 3.125-20.8594 1.797-3.086 13.9454-4.1797 21.875-1.7187 7.9688 2.4219 13.2423 5.7812 17.5392 8.8672 4.2968 3.0468 11.7968 5.5468 9.2578 10.2343-2.5391 4.6485-2.8125 11.3282-3.5157 15.6641-.703 4.375-3.75 8.6719-3.75 8.6719s-4.1797 5.8984-5.9375 3.789c-1.7578-2.0703-5.078 3.711-8.125 2.3438-3.0859-1.3672-15.5078.2344-15.5078.2344Zm0 0" style="fill:none;stroke-width:5.25;stroke-linecap:square;stroke-linejoin:round;stroke:#231f20;stroke-opacity:1;stroke-miterlimit:4" transform="matrix(.1 0 0 -.1 0 405.69)"/><path d="M357.4102 230.832s-2.4649 2.3243-2.2891 3.5352c.1758 1.207-.2422 1.75.7656 1.918 1.0078.1718 3.9844-.6993 4.3399-1.1094.3515-.414.2226-1.332.2734-1.9375.0547-.6055-.0742-1.8047-.0742-1.8047l-.4492-.9727-.7813-.1328s-1.5937.207-1.7851.504" style="stroke:none;fill-rule:nonzero;fill:#ffcb04;fill-opacity:1"/><path d="M3574.1016 1748.5797s-24.6485-23.2422-22.8907-35.3516c1.7578-12.0703-2.4218-17.5 7.6563-19.1797 10.0781-1.7187 39.8437 6.9922 43.3984 11.0938 3.5156 4.1406 2.2266 13.3203 2.7344 19.375.5469 6.0547-.7422 18.0469-.7422 18.0469l-4.4922 9.7265-7.8125 1.3282s-15.9375-2.0704-17.8515-5.0391Zm0 0" style="fill:none;stroke-width:5.25;stroke-linecap:square;stroke-linejoin:round;stroke:#231f20;stroke-opacity:1;stroke-miterlimit:4" transform="matrix(.1 0 0 -.1 0 405.69)"/><path d="M319.7695 198.9102s-.6757 3.7539-.1093 4.8867c.5625 1.1328.7109 1.3945 1.5586.8281.8476-.5664 2.5117-2.0352 2.625-2.4375.1171-.4063.0468-.8398-.336-1.379-.3828-.535-.961-1.578-.961-1.578l-1.3398-.7422" style="stroke:none;fill-rule:nonzero;fill:#ffcb04;fill-opacity:1"/><path d="M3197.6953 2067.7984s-6.7578-37.539-1.0937-48.8672c5.625-11.328 7.1093-13.9453 15.5859-8.2812 8.4766 5.664 25.1172 20.3516 26.25 24.375 1.1719 4.0625.4688 8.3984-3.3594 13.789-3.8281 5.3516-9.6094 15.7813-9.6094 15.7813l-13.3984 7.4219Zm0 0" style="fill:none;stroke-width:5.25;stroke-linecap:square;stroke-linejoin:round;stroke:#231f20;stroke-opacity:1;stroke-miterlimit:4" transform="matrix(.1 0 0 -.1 0 405.69)"/><path d="M319.9023 185.1523s-1.0742 1.047-1.2109 2.1563c-.1367 1.1094-.582 2.6406.8125 2.7812 1.3867.1329 3.0195-.582 3.2617-.918.25-.3359.7227-1.203.5078-1.8984-.2148-.6953-.164-2.1015-.164-2.1015s-.961-2.9922-3.207-.0196" style="stroke:none;fill-rule:nonzero;fill:#ffcb04;fill-opacity:1"/><path d="M3199.0234 2205.3766s-10.7422-10.4688-12.1093-21.5625c-1.3672-11.0938-5.8203-26.4063 8.125-27.8125 13.8672-1.3282 30.1953 5.8203 32.6172 9.1797 2.5 3.3593 7.2265 12.0312 5.078 18.9843-2.1484 6.9532-1.6406 21.0157-1.6406 21.0157s-9.6093 29.9218-32.0703.1953Zm0 0" style="fill:none;stroke-width:5.25;stroke-linecap:square;stroke-linejoin:round;stroke:#231f20;stroke-opacity:1;stroke-miterlimit:4" transform="matrix(.1 0 0 -.1 0 405.69)"/><path d="M3223.3203 2182.8766s1.9922-10.6641-2.7344-12.3047m4.3751-122.2266 4.8046-6.3281m364.1407-319.0625s2.7734-10.1172-.2344-11.7188" style="fill:none;stroke-width:5.25;stroke-linecap:square;stroke-linejoin:round;stroke:#231f20;stroke-opacity:1;stroke-miterlimit:4" transform="matrix(.1 0 0 -.1 0 405.69)"/><path d="m3159.2578 2622.7594-71.211-618.2813c-2.1093-13.2031-3.6327-26.4062-4.5312-39.4922-4.6875-66.4843 5.625-131.1328 28.3594-190.3125 54.7656-142.6562 181.4063-253.4375 343.0078-280.5078 161.6016-27.0312 317.4219 36.4453 415.664 153.4766 40.7423 48.5547 71.6016 106.3281 88.8282 170.664 3.3594 12.6954 142.6172 646.6016 142.6172 646.6016Zm0 0" style="fill:none;stroke-width:15.76;stroke-linecap:square;stroke-linejoin:round;stroke:#231f20;stroke-opacity:1;stroke-miterlimit:4" transform="matrix(.1 0 0 -.1 0 405.69)"/><path d="M356.5156 159.332s.9883-.7265 1.7461-.5468c.7578.1796.8203.2656 1.379.2578.5624-.0118 1.2343-.0743 1.4843-.0313.246.039.3398.8438-.1758.8828-.5156.043-.3281.2774-.4219.8477-.0937.5703-1.2343 1.9023-1.7773 2.2695-.5469.3672-1.164.7227-1.414.707-.254-.0195 1.0585 1.1172 1.6952.9454.6407-.1758 1.0625-.2578 1.0938-.4532 0 0 .2031 1.6875-1.2578 1.5938 0 0 .8515 1.4414 2.4844 1.1055 0 0-.4375 1.578-1.8008 1.3515 0 0 .7305 2.004 2.1445 2.2149 0 0-1.0195 1.4062-2.2734.078 0 0 .5625 2.4063 2.8945 1.7071 0 0-.6055 1.7774-2.7187.8672 0 0 .9492 1.7852 2.0664 1.6445 0 0-.8985 1.5782-2.3594.7227 0 0 .0117 2.2148 2.168 1.9414 0 0-.4141.793-2.6172.2969 0 0 1.3203 1.2148 2.0156 1.1758 0 0-1.332 1.7343-2.6133-.1797 0 0 .0977 2.1289 2.164 2.0898 0 0-1.8827 1.6719-3.2734-.1914 0 0 .5743 2.0313 2.3204 2.2461 0 0-1.5743 1.0352-3.172-.1992 0 0 .0313 1.3242 1.9923 1.6289 0 0-.7266 1.1523-2.4883.4258 0 0 1.5586 1.4804 2.8437 2.1562 1.289.6719 4.4766 3.039 4.8516 3.5313.375.496 2.2344 2.7656 3.0469 3.2304.8125.4688 3.625 1.4493 4.7148 1.6328 1.0899.1797 4.4453 1.5586 5.961 2.8282 1.5195 1.2695 2.6835 3.2734 3.0625 3.7422.3828.4726 1.332 1.7773 3.0976.8007 1.7695-.9804 3.4063-3.3515 3.1992-6.3593-.207-3.0118-.668-5.7344-.4531-7.6055.207-1.871 1.664-4.1484 3.7695-6.2617 2.1094-2.1172 3.0547-4.0938 3.4297-5.7344.379-1.6406 1.5899-3.7031 2.5078-4.1875.922-.4805 1.9727-.5351 2.2657-.4844 0 0-1.672 1.1953-2.2774 1.9297-.6133.7422-1.2617 2.0781-1.3164 2.836-.0508.7539-.7539 3.1289-1.0898 3.7851-.3438.6563-.9141 1.8047-1.332 2.3203-.418.5156-1.6954 2.2344-1.793 2.3438-.0938.1172-.4336.9219-.4336.9219s4.3242-5.1485 4.668-5.9844c.3437-.832 1.0156-1.664.9062-1.9336 0 0 .0508 2.7539-.3399 3.3984-.3867.6524-1.3242 1.9922-1.8593 2.6172-.539.6211-1.4024 1.9766-1.5938 2.2266-.1953.25-.8281.957-.9336 1.5742-.1015.6172-.3398 1.621-.3867 1.918-.0508.3007 1.0977-1.5938 1.6406-2.3946.543-.8008 1.1797-1.5586 1.668-2.0351.4883-.4766 1.254-1.1133 1.5117-1.582.2578-.461.504-.754.504-.754s-.3516 3.0196-.8634 3.6446c-.5117.6289-1.1132 1.4687-1.4726 1.8164-.3672.3476-1.4844 1.4297-1.6875 2.0078-.1953.5781-.4883 1.2656-.5703 1.7617-.082.496-.2188.957-.2578 1.0781-.043.1133-.4454.8164-.5977 1.1406-.1601.332 1.3399-2.2421 1.832-2.7421.4883-.504 1.3477-1.5313 1.9883-2.1602.6367-.6328 1.1797-1.1016 1.2617-1.4414.082-.3477-.3632 2.457-.5976 2.8008-.2383.3398-.9024 1.4219-1.2695 1.8203-.375.3945-.8008.832-1.1915 1.1719-.3906.3437-.9218 1.0937-1.2304 1.4257-.3086.3282 2.9687-2.8359 3.246-3.125 0 0-.0937 1.6172-.41 2.1485-.3243.5312-.793 1.0898-1.1759 1.5312-.3789.4453-1.1601.8477-1.4804 1.2813-.332.4258-.9727.9062-.25 1.0234.7187.1211 1.3046-.0625 1.9375-.4844.6289-.4335 1.375-1.0976 1.539-1.2968 0 0-.5039 1.7969-1.125 2.4804-.621.6875-.9726.9297-1.7617 1.0782-.789.1523-1.4687.1132-1.4687.1132s1.5507 1.0704 2.8086.8516c0 0-1 1.4375-3.1055 1.0586 0 0-.3438.7031 1.1445 1.082 0 0-1.0508 1.2696-3.1484.4141 0 0-.8008 1.289 1.4844 1.9492 0 0-.2813 1.2031-2.3633.4219 0 0 .4023.957-1.797.082l.0978.4961s-1.043.1328-1.7266-.4648c0 0-1.211.5351-2.0547-.2188-.836-.75-1.3203-1.0625-2.086-1.1914 0 0-.3867 3.2188-3.0117 6.4453-2.6289 3.2266-3.3632 2.4375-3.9062 3.2618-.5469.8242-1.043 2.2695-1.0547 2.6484-.0117.3789.1719 1.4023.4922 1.7617.3242.3594 1.3203 1.6953 1.5937 2.0469.2696.3515.7852 1.0742.6797 1.5664-.1093.4883-.3125.9648-.4922.961 0 0-.8086 2.2265-2.5703 2.1366 0 0-5.2422 3.0391-5.5625 3.2657-.3125.2265-.8203.6523-.8203.6523s-.7812 1.168.168 1.4297c0 0-1.2813.0625-1.25-.875 0 0-1.379 1.5508.1758 2.4219 0 0-1.8282-.7656-1.707-1.6328l-.6407.7578-.8906.1523s-.3477-.8828-.4531-.6484c-.1133.2304-.4493.2969-.4493.2969s-.3359-.6641-.1601-.8672c.1758-.1993-.4219.3789-.4219.3789s-.6992.2226-.7422.4844c-.043.2617-.3515-.8125-.0508-.9922 0 0-1.0351.289-1.2148.5117-.1797.2226-.1602-.7617.3125-1.1133.4688-.3516.9453-.8281 1.207-1.0156.2657-.1914.1446-.5156.8203-.4922.6758.0234 1.207.1836 1.5704.0312.3671-.1523 2.3593-1.8672 3.0273-2.2343.6758-.375 2.4922-1.7188 2.707-1.9336.2188-.2149 1.2422-2.0508.2774-3.039-.9649-.9806-1.4258-1.0977-1.4258-1.0977s.0742 2.0937-.5664 2.703c-.6406.6095-2.1328 1.0782-2.6992 1.0548-.5703-.0274-1.4883.625-1.7813.7734-.293.1523-3.961 2.5664-4.1758 2.6758-.2148.1054-1.0468.793-1.0468.793s-.7579.9804-.375 1.2773c0 0-.672-.3984-.6524-.7149 0 0-.5039.6485-.4922 1.332 0 0-.7422.25-.6797-.4218 0 0-.6601.2852-.8086.4258-.1484.1367-.543.461-.543.461s-.914-.7423-.7773-1.1368c0 0-.8086.2461-.7304.707 0 0-.3399-.7187-.1133-1.0234 0 0-.9492.2148-.9844.625l-.586-.5469s-.5156-.2656-.3359-.6836c.1797-.4218.582-1.4453 1.336-1.4453.7539 0 1.875-.0625 2.711-.5508.832-.4843 5.0077-3.7851 5.5155-4.1484.5079-.3633 2.086-1.746 1.1602-3.7148-.9258-1.961-2.0938-1.8516-1.8711-3.0704.2227-1.2187.3398-1.6992.371-2 .0313-.2968-.5976-1.0312-.4257-1.6484.1758-.6172.8242-1.6914 1.0235-1.8203.203-.125.9726-.7695.9726-.7695s-.039-1.4727-1.4023-1.793c-1.3633-.3203-5.297-.9219-5.9883-1.0547-.6992-.1367-8.129-3.8164-8.9336-6.9453 0 0-2.625.043-3.2774-.5508-.6562-.5937-1.5156-1.1289-2.0195-1.2148-.5078-.086-3.7305-.754-4.4687-1.4649-.7422-.7187-2.129-1.7578-2.2461-1.9023-.1211-.1446-1.0782-.5196-1.4063-.3946-.3242.125-1.5625.547-1.871-.0625 0 0-1.836 2.2891-2.1915 2.5899-.3515.3008-1.4492 1.1562-1.4492 1.1562s-.2813 1.0625.7266 1.0508c0 0-.711.457-1.3164-.1992 0 0-.297.7031-.2149.8594.082.1562-.4101.2031-.5117.0586 0 0-.6094.2187-.5274.4844 0 0-.4453-.2344-.3828-.5118 0 0-.7382.2344-.8086.7618 0 0-.9492-.1055-.578-.832 0 0-.129-.8282-.836-.461 0 0 .246-1.5703.7773-1.879.5352-.3046 1.914-.9335 2.7696-1.8515.8515-.914 2.375-2.8437 2.5742-3.1875.2031-.3437.1875-1.4219 1.1562-1.9726.9727-.5586 2.5352-.5625 3.125-.2344.5899.332 1.6485.4375 2.0313.5039.3828.0625 1.8867.0664 2.0781.0976.1953.0313 1.1016-.0312 1.1016-.0312s-2.6485-2.918-2.9375-3.4492c-.2891-.5352-1.4102-2.2813-1.547-2.5547-.1327-.2734-.457-.793-.457-.793s-.4257-.125-.6562-.039c-.2305.0859-1.2266.0468-1.418-.629 0 0-1.8398 1.0157-2.1562 1.2149-.3203.1953-1.1133.4375-1.1133.4375s-.4531.7695.0508 1.0703c0 0-.707-.2656-.879-.7383l-.4648.6367s-.7304-.0312-.7421-.3945c-.0118-.3555-.5782-.2734-.8672-.2656-.2891.0039-.293-.3945-.5586-.3125-.2657.082-1.0743.5351-.9024.9805 0 0-.5-.75-.1015-1.1836 0 0-.7813.1562-.7149.4023 0 0 .3047-1.3867.8555-1.6719.5469-.2812 1.8594-.5078 2.6289-.7187.7695-.2149 2.375-1.1328 2.6953-1.3242.3203-.2032 1.5078-1.0743 1.5078-1.0743s1.2188-.9804 1.8828-.8671c.664.1093 2.0547.8945 2.6836 1.4335.625.5352 2.8242 1.3165 3.3125 1.6094.4883.3008 1.9297.918 1.9297.918l.293.168s.7578-1.75 2.8476-3.5313c2.0938-1.7851 2.5157-2.7187 3.168-3.4883.6484-.7695 1.9414-2.289 2.3086-2.7656.3672-.4805 1.0547-2.332 1.0664-3.1562 0 0-2.9101-1.672-4.414-2.7657-1.5-1.0937-2.836-1.8906-2.836-2.3203 0 0-.6953.9219-1.2305.5977-.539-.3203-.8125-.9375-.3632-1.2578 0 0-.6446.7343-1.0938.3359-.457-.3984-.2617-1.246.586-1.4805l-.5313-.1406s-.0938-.5.1836-.6719c0 0-.1485-.4023-.2344-.539-.082-.1368-1.0234-.9414.4766-1.875 0 0 .3047-.0938.3789-.4375.0742-.3477.4648-.961 1.0078-.9961.543-.0352 1.121.2773 1.9414.414.8203.1368 1.4531.297 2.457.1055.9961-.1914 2.5313-.3633 3.3477-.3164.8164.0469 1.414.2383 2.0625.0938.6523-.1407.5351-.7188 1.6445-.586 0 0 1.0625-.3594-.0976-1.6797 0 0 1.3828-.539 2.3906 1.3516 0 0 .289-1.9258.9648-2.2266.6797-.2969 1.129-.6328 1.4961-.6836.3672-.0468.6836.1875.4219.6836-.2617.4922-.3008 1.707-.3477 2.1992-.0468.4922.129.8282.1329 1.0079.0078.1796.4218.1601.4218.1601s.9493-.9531.6172-1.6328c0 0 .6797.7383.5664 1.8945" style="stroke:none;fill-rule:nonzero;fill:#fff;fill-opacity:1"/><path d="M3565.1563 2463.5797s9.8828 7.2656 17.4609 5.4687c7.5781-1.7968 8.2031-2.6562 13.789-2.578 5.625.1171 12.3438.7421 14.8438.3124 2.461-.3906 3.3984-8.4375-1.7578-8.8281-5.1563-.4297-3.2813-2.7734-4.2188-8.4766-.9375-5.7031-12.3437-19.0234-17.7734-22.6953-5.4688-3.6719-11.6406-7.2265-14.1406-7.0703-2.539.1953 10.586-11.1719 16.9531-9.4531 6.4063 1.7578 10.625 2.5781 10.9375 4.5312 0 0 2.0313-16.875-12.5781-15.9375 0 0 8.5156-14.414 24.8437-11.0547 0 0-4.375-15.7812-18.0078-13.5156 0 0 7.3047-20.039 21.4453-22.1484 0 0-10.1953-14.0625-22.7344-.7813 0 0 5.625-24.0625 28.9454-17.0703 0 0-6.0547-17.7734-27.1875-8.6719 0 0 9.4922-17.8515 20.664-16.4453 0 0-8.9844-15.7812-23.5937-7.2265 0 0 .1172-22.1485 21.6797-19.4141 0 0-4.1407-7.9297-26.172-2.9688 0 0 13.2032-12.1484 20.1563-11.7578 0 0-13.3203-17.3437-26.1328 1.797 0 0 .9766-21.2892 21.6406-20.8985 0 0-18.828-16.7188-32.7343 1.914 0 0 5.7422-20.3125 23.2031-22.4609 0 0-15.7422-10.3516-31.7188 1.9922 0 0 .3126-13.2422 19.922-16.289 0 0-7.2657-11.5235-24.8829-4.2579 0 0 15.586-14.8047 28.4375-21.5625 12.8906-6.7187 44.7656-30.3906 48.5156-35.3125 3.75-4.961 22.3438-27.6562 30.4688-32.3047 8.125-4.6875 36.25-14.4922 47.1484-16.3281 10.8985-1.7969 44.4531-15.586 59.6094-28.2813 15.1953-12.6953 26.836-32.7343 30.625-37.4218 3.8281-4.7266 13.3203-17.7735 30.9766-8.0078 17.6953 9.8047 34.0625 33.5156 31.9922 63.5937-2.0704 30.1172-6.6797 57.3438-4.5313 76.0547 2.0703 18.711 16.6406 41.4844 37.6953 62.6172 21.0938 21.1719 30.5469 40.9375 34.2969 57.3437 3.789 16.4063 15.8984 37.0313 25.0781 41.875 9.2188 4.8047 19.7266 5.3516 22.6563 4.8438 0 0-16.7188-11.9531-22.7735-19.2969-6.1328-7.4219-12.6172-20.7812-13.164-28.3594-.5078-7.539-7.5391-31.289-10.8985-37.8515-3.4375-6.5625-9.1406-18.0469-13.3203-23.2031-4.1797-5.1563-16.9531-22.3438-17.9297-23.4376-.9375-1.1718-4.336-9.2187-4.336-9.2187s43.2423 51.4844 46.6798 59.8438c3.4375 8.3203 10.1562 16.6406 9.0625 19.3359 0 0 .5078-27.539-3.3985-33.9844-3.8672-6.5234-13.2422-19.9219-18.5937-26.1719-5.3906-6.2109-14.0235-19.7656-15.9375-22.2656-1.9531-2.5-8.2813-9.5703-9.336-15.7422-1.0156-6.1718-3.3984-16.211-3.8671-19.1797-.5078-3.0078 10.9765 15.9375 16.4062 23.9453 5.4297 8.0079 11.7969 15.586 16.6797 20.3516 4.8828 4.7656 12.539 11.1328 15.1172 15.8203 2.5781 4.6094 5.039 7.539 5.039 7.539s-3.5156-30.1952-8.6328-36.4452c-5.1172-6.289-11.1328-14.6875-14.7265-18.164-3.6719-3.4767-14.8438-14.297-16.875-20.0782-1.9531-5.7813-4.8828-12.6563-5.7031-17.6172-.8204-4.961-2.1876-9.5703-2.5782-10.7813-.4297-1.1328-4.4531-8.164-5.9765-11.4062-1.6016-3.3203 13.3984 22.4219 18.3203 27.4219 4.8828 5.039 13.4765 15.3125 19.8828 21.6015 6.3672 6.3282 11.7969 11.0157 12.6172 14.4141.8203 3.4766-3.6328-24.5703-5.9766-28.0078-2.3828-3.3984-9.0234-14.2188-12.6953-18.2031-3.75-3.9453-8.0078-8.3203-11.914-11.7188-3.9063-3.4375-9.2188-10.9375-12.3047-14.2578-3.086-3.2813 29.6874 28.3594 32.4609 31.25 0 0-.9375-16.1719-4.1016-21.4844-3.2422-5.3125-7.9297-10.8984-11.7578-15.3125-3.789-4.4531-11.6015-8.4765-14.8047-12.8125-3.3203-4.2578-9.7265-9.0625-2.5-10.2343 7.1875-1.211 13.0469.625 19.375 4.8437 6.289 4.336 13.75 10.9766 15.3906 12.9688 0 0-5.039-17.9688-11.25-24.8047-6.2109-6.875-9.7265-9.297-17.6171-10.7813-7.8907-1.5234-14.6875-1.1328-14.6875-1.1328s15.5078-10.7031 28.0859-8.5156c0 0-10-14.375-31.0547-10.586 0 0-3.4375-7.0312 11.4453-10.8203 0 0-10.5078-12.6953-31.4844-4.1406 0 0-8.0078-12.8906 14.8438-19.4922 0 0-2.8125-12.0312-23.6328-4.2187 0 0 4.0234-9.5703-17.9688-.8203l.9766-4.961s-10.4297-1.3281-17.2656 4.6485c0 0-12.1094-5.3516-20.5469 2.1875-8.3594 7.5-13.2031 10.625-20.8594 11.914 0 0-3.8672-32.1875-30.1172-64.4531-26.289-32.2656-33.6328-24.375-39.0625-32.6172-5.4687-8.2422-10.4297-22.6953-10.5468-26.4844-.1172-3.789 1.7187-14.0234 4.9218-17.6172 3.2422-3.5937 13.2032-16.953 15.9375-20.4687 2.6953-3.5156 7.8516-10.7422 6.797-15.664-1.0938-4.8829-3.125-9.6485-4.922-9.6094 0 0-8.0859-22.2657-25.703-21.3672 0 0-52.422-30.3907-55.625-32.6563-3.125-2.2656-8.2032-6.5234-8.2032-6.5234s-7.8125-11.6797 1.6797-14.2969c0 0-12.8125-.625-12.5 8.75 0 0-13.789-15.5078 1.7578-24.2188 0 0-18.2813 7.6563-17.0703 16.3282l-6.4063-7.5781-8.9062-1.5235s-3.4766 8.8281-4.5313 6.4844c-1.1328-2.3047-4.4922-2.9688-4.4922-2.9688s-3.3593 6.6407-1.6015 8.672c1.7578 1.9921-4.2188-3.7891-4.2188-3.7891s-6.9922-2.2266-7.4219-4.8438c-.4296-2.6172-3.5156 8.125-.5078 9.9219 0 0-10.3515-2.8906-12.1484-5.1172-1.7969-2.2266-1.6016 7.6172 3.125 11.1328 4.6875 3.5156 9.4531 8.2813 12.0703 10.1563 2.6563 1.914 1.4453 5.1562 8.2031 4.9218 6.7578-.2343 12.0703-1.836 15.7032-.3125 3.6718 1.5235 23.5937 18.6719 30.2734 22.3438 6.7578 3.75 24.9219 17.1875 27.0703 19.336 2.1875 2.1484 12.4219 20.5077 2.7735 30.3905-9.6485 9.8047-14.2579 10.9766-14.2579 10.9766s.7422-20.9375-5.664-27.0313c-6.4063-6.0937-21.3281-10.7812-26.9922-10.5468-5.7031.2734-14.8828-6.25-17.8125-7.7344-2.9297-1.5234-39.6094-25.664-41.7578-26.7578-2.1485-1.0547-10.4688-7.9297-10.4688-7.9297s-7.5781-9.8047-3.75-12.7734c0 0-6.7187 3.9843-6.5234 7.1484 0 0-5.039-6.4844-4.9219-13.3203 0 0-7.4219-2.5-6.7969 4.2187 0 0-6.6015-2.8515-8.0859-4.2578-1.4844-1.3672-5.4297-4.6093-5.4297-4.6093s-9.1406 7.4218-7.7734 11.3671c0 0-8.086-2.4609-7.3047-7.0703 0 0-3.3985 7.1875-1.1328 10.2344 0 0-9.4922-2.1484-9.8438-6.25l-5.8594 5.4688s-5.1562 2.6562-3.3593 6.8359c1.7969 4.2187 5.8203 14.4531 13.3594 14.4531 7.539 0 18.75.625 27.1093 5.5078 8.3203 4.8438 50.0781 37.8516 55.1563 41.4844 5.0781 3.6328 20.8594 17.461 11.6015 37.1484-9.2578 19.6094-20.9375 18.5157-18.7109 30.7032 2.2266 12.1875 3.3984 16.9922 3.711 20 .3124 2.9687-5.9766 10.3125-4.2579 16.4843 1.7578 6.172 8.2422 16.9141 10.2344 18.2032 2.0313 1.25 9.7266 7.6953 9.7266 7.6953s-.3907 14.7265-14.0235 17.9297c-13.6328 3.203-52.9687 9.2187-59.8828 10.5468-6.9922 1.3672-81.289 38.1641-89.336 69.4532 0 0-26.25-.4297-32.7734 5.5078-6.5625 5.9375-15.1562 11.289-20.1953 12.1484-5.0781.8594-37.3047 7.539-44.6875 14.6485-7.4219 7.1874-21.289 17.578-22.461 19.0234-1.2108 1.4453-10.7812 5.1953-14.0624 3.9453-3.2422-1.25-15.625-5.4688-18.711.625 0 0-18.3593-22.8906-21.914-25.8984-3.5156-3.0078-14.4922-11.5625-14.4922-11.5625s-2.8125-10.625 7.2656-10.5078c0 0-7.1094-4.5704-13.164 1.9921 0 0-2.9688-7.0312-2.1485-8.5937s-4.1015-2.0313-5.1172-.586c0 0-6.0937-2.1874-5.2734-4.8437 0 0-4.4531 2.3438-3.8281 5.1172 0 0-7.3828-2.3438-8.086-7.6172 0 0-9.4922 1.0547-5.7812 8.3203 0 0-1.289 8.2813-8.3594 4.6094 0 0 2.461 15.7031 7.7735 18.789 5.3515 3.047 19.1406 9.336 27.6953 18.5157 8.5156 9.1406 23.75 28.4375 25.7422 31.875 2.0312 3.4375 1.875 14.2187 11.5624 19.7265 9.7266 5.586 25.3516 5.625 31.25 2.3438 5.8985-3.3203 16.4844-4.375 20.3126-5.039 3.828-.625 18.8671-.6641 20.7812-.9766 1.9531-.3125 11.0156.3125 11.0156.3125s-26.4844 29.1797-29.375 34.4922c-2.8906 5.3515-14.1015 22.8124-15.4687 25.5468-1.3281 2.7344-4.5703 7.9297-4.5703 7.9297s-4.2578 1.25-6.5625.3906c-2.3047-.8593-12.2657-.4687-14.1797 6.2891 0 0-18.3985-10.1563-21.5625-12.1484-3.2031-1.9532-11.1328-4.375-11.1328-4.375s-4.5313-7.6953.5078-10.7032c0 0-7.0703 2.6563-8.789 7.3828l-4.6485-6.3671s-7.3047.3125-7.4219 3.9453c-.1172 3.5547-5.7813 2.7344-8.6719 2.6562-2.8906-.039-2.9297 3.9453-5.586 3.125-2.6562-.8203-10.7421-5.3515-9.0233-9.8047 0 0-5 7.5-1.0157 11.836 0 0-7.8125-1.5625-7.1484-4.0235 0 0 3.0469 13.8672 8.5547 16.7188 5.4687 2.8125 18.5937 5.0781 26.289 7.1875 7.6953 2.1484 23.75 11.3281 26.9532 13.2422 3.203 2.0312 15.078 10.7422 15.078 10.7422s12.1876 9.8047 18.8282 8.6718c6.6406-1.0937 20.5469-8.9453 26.836-14.3359 6.25-5.3516 28.2421-13.164 33.125-16.0938 4.8828-3.0078 19.2968-9.1796 19.2968-9.1796l2.9297-1.6797s7.5781 17.5 28.4766 35.3125c20.9375 17.8515 25.1562 27.1875 31.6797 34.8828 6.4843 7.6953 19.414 22.8906 23.0859 27.6562 3.6719 4.8047 10.5469 23.3203 10.664 31.5625 0 0-29.1015 16.7188-44.1406 27.6563-15 10.9375-28.3593 18.9062-28.3593 23.2031 0 0-6.9532-9.2187-12.3047-5.9765-5.3906 3.203-8.125 9.375-3.6328 12.578 0 0-6.4453-7.3437-10.9375-3.3593-4.5703 3.9844-2.6172 12.461 5.8593 14.8047l-5.3125 1.4062s-.9375 5 1.836 6.7188c0 0-1.4844 4.0234-2.3438 5.3906-.8203 1.3672-10.2344 9.414 4.7656 18.75 0 0 3.047.9375 3.7891 4.375.7422 3.4766 4.6485 9.6094 10.0781 9.961 5.4297.3515 11.211-2.7735 19.4141-4.1407 8.2031-1.3672 14.5313-2.9687 24.5703-1.0547 9.961 1.9141 25.3125 3.6328 33.4766 3.1641 8.164-.4688 14.1406-2.3828 20.625-.9375 6.5234 1.4063 5.3515 7.1875 16.4453 5.8594 0 0 10.625 3.5937-.9766 16.7969 0 0 13.8281 5.3906 23.9063-13.5157 0 0 2.8906 19.2578 9.6484 22.2657 6.7969 2.9687 11.289 6.328 14.961 6.8359 3.6718.4687 6.8359-1.875 4.2187-6.836-2.6172-4.9218-3.0078-17.0703-3.4766-21.9921-.4687-4.922 1.2891-8.2813 1.3282-10.0782.078-1.7968 4.2187-1.6015 4.2187-1.6015s9.4922 9.5312 6.1719 16.3281c0 0 6.7969-7.3828 5.664-18.9453Zm0 0" style="fill:none;stroke-width:5.25;stroke-linecap:square;stroke-linejoin:round;stroke:#231f20;stroke-opacity:1;stroke-miterlimit:4" transform="matrix(.1 0 0 -.1 0 405.69)"/><path d="M3375.3516 2452.4078s-11.6016-10.3906-8.9844-14.0625m38.8672-19.4531s-3.9453-2.539-4.8438-5.625c-.8594-3.086-7.1875-6.1719-7.9297-7.461m-22.8125 29.5704s10.8594-2.3438 17.8907-2.9688c7.1093-.664 8.0859-5.4297 13.75-4.7656 5.664.664 3.8672-.625 3.8672-.625m-33.3594-3.2032s12.0312-3.2812 15.5078-3.8671c3.4765-.586 7.0703-.4688 8.4765-.7031 1.4063-.2344 5.8594 4.9609 5.8594 4.9609" style="fill:none;stroke-width:5.25;stroke-linecap:square;stroke-linejoin:round;stroke:#231f20;stroke-opacity:1;stroke-miterlimit:4" transform="matrix(.1 0 0 -.1 0 405.69)"/><path d="M3387.9688 2427.1734s-4.5313-3.5547-3.125-5.7422m6.3281 31.4063s11.289.9766 13.5937-2.461c2.2656-3.4374-3.2422 1.0938-6.5234-.3515-3.2813-1.4063-3.2031-2.1484-3.2031-2.1484m28.3593-50.1172s1.6016-5.2735 3.5547-6.4844m62.9297 53.6328s-10.3125-2.7734-7.6953-9.4922c2.6563-6.6797 3.3594-10.039 5.8203-10.4297" style="fill:none;stroke-width:5.25;stroke-linecap:square;stroke-linejoin:round;stroke:#231f20;stroke-opacity:1;stroke-miterlimit:4" transform="matrix(.1 0 0 -.1 0 405.69)"/><path d="M3462.3047 2441.8219s9.8047 6.211 12.7344 8.4765c2.8515 2.1875 5.9765 8.125 9.2187 5.9375 3.2031-2.1484 9.2969-10.8984 11.914-15.5859 2.6173-4.7656 3.9844-7.1484 7.1485-9.8047 3.125-2.6953 4.9219-3.711 4.9219-3.711m-7.8516 47.3829s11.6797-1.0547 15.039-3.4375c3.3595-2.3438 9.1798-2.0313 14.6876-3.3203 5.5078-1.289 12.2265-2.9688 14.2969-5.625 2.0312-2.6953 5.4297-3.9844 8.789-4.1797m-5.1953-29.9609s2.9688 5.9374 5.3125 5.9374c2.3438-.039 10.3906.2344 13.8672 4.8438 3.4766 4.6094 5.5469 10.5469 8.8281 13.0078 3.3203 2.5 2.1875 5.586 6.3672 4.8828m8.8672 2.461c2.6172-.4297 5.9766-.4688 8.9063-.4297 2.8515.0781 6.953-1.1328 6.953-1.1328m-33.9062-38.6328s-4.6094-.8204-7.2265-.3907c-2.6172.4297-4.6485 3.2813-4.6485.0782 0-3.2422 3.5156-5.8204 6.7969-10.6641 3.3203-4.8828 7.3047-6.7578 7.1484-10-.1953-3.164 2.9688-7.8125 2.9297-9.0625m-112.6171-33.4766s16.0156-5 24.0234 1.1719c8.0469 6.1719 9.9219 9.8047 11.0937 15.8984 1.211 6.0547 1.914 12.3828 1.914 12.3828s5.3517 3.2422 7.422 5.7422c2.0312 2.5391 4.1406 5.586 4.1406 5.586m-52.8516-89.7656s4.7266-14.7657 34.2578 3.2421m-75.3515-62.4609s5 4.1797 11.3672 3.8281c6.4062-.3515 22.539 2.8125 28.0078 7.6563m-46.6406 13.75s-2.6954-16.0547-5.2344-21.5625c-2.5-5.4688-6.25-6.4844-9.5313-12.0313-3.2422-5.5078-8.5547-12.6953-7.461-18.9843m-7.8124-37.0704s7.8515 21.2891 18.6328 23.5938c10.7813 2.3437 18.125 1.25 26.9922 5 8.8672 3.711 18.0469 10.2344 18.0469 10.2344m-99.0235-66.6016s16.7578 3.6328 27.6563 1.289c10.8984-2.3827 17.4219-3.125 26.25-3.8671 4.5703-.3906 9.4531.2734 13.9062 1.6015 4.1016 1.2891 7.8516 3.047 10.7031 5.0391 5.8985 4.2188 5.9376 5.8203 14.2188 5.7031 8.2031-.1172 14.1406 2.1094 20.664 5.8594 6.5626 3.75 7.6954 5.1563 7.6954 5.1563m-53.2813-21.7579s4.4531-3.2422 11.25-4.375c6.836-1.1328 7.5-1.25 11.875-6.289" style="fill:none;stroke-width:5.25;stroke-linecap:square;stroke-linejoin:round;stroke:#231f20;stroke-opacity:1;stroke-miterlimit:4" transform="matrix(.1 0 0 -.1 0 405.69)"/><path d="M3371.4844 2225.9625s-7.5-17.0703-3.9844-30.1953c3.5547-13.125-1.9922-22.5781 1.0547-27.9297 3.0469-5.3906 2.539-9.414 2.539-9.414m-5.8203-.4297-24.6484 26.1328s1.25-1.0547-.664.3125m26.6406-11.2501s-14.922 21.2891-21.4844 25.9766" style="fill:none;stroke-width:5.25;stroke-linecap:square;stroke-linejoin:round;stroke:#231f20;stroke-opacity:1;stroke-miterlimit:4" transform="matrix(.1 0 0 -.1 0 405.69)"/><path d="M3368.4375 2189.7125s-20.2344 22.3828-24.4922 23.8281m22.2266-7.5s-6.5625 7.9297-10.5469 9.8438m11.1719 2.4219s-22.3047 14.4921-29.8828 17.578m67.4609-154.9218s19.336-5.7031 24.6875-2.5m205.3906-69.1406s5.7422-12.4219 2.2266-24.5313c-3.4766-12.1093-9.7266-17.3828-13.5938-21.4062-3.828-4.0235-9.5703-16.4453-6.2109-24.1016 3.3594-7.6172 3.4766-9.8437 8.6328-15.3515 5.1953-5.5079 11.6016-10.9766 12.0703-16.9141.4688-5.9375-8.086-16.211-2.8515-24.1797 5.2734-7.9688 11.6015-15.3516 13.789-18.4375 2.1875-3.0469 7.6172-8.3594 7.6172-8.3594" style="fill:none;stroke-width:5.25;stroke-linecap:square;stroke-linejoin:round;stroke:#231f20;stroke-opacity:1;stroke-miterlimit:4" transform="matrix(.1 0 0 -.1 0 405.69)"/><path d="M3576.6406 1983.3453s32.8516-13.5547 42.539-24.4531m-6.2499 4.0625-23.4766-15.4297m29.2579 9.2969-27.6172-18.4375m24.2968 6.1719-25.1953-20.3125m26.6797 10.039-29.7656-22.461m30.2734 10.3907-28.6328-22.6172m46.0156 12.6172-28.6719-22.6172m21.3282 28.4766-28.6328-22.6563m37.6172 6.25-28.6329-22.6172m35.1172-8.125-28.6328-22.6171m24.5312 30.9375-24.5312-19.375m32.8906 5.1562-24.4922-19.375m-15.7422-21.0937-43.7109-24.961m158.8282 43.2422s3.5937-10.625.664-12.0703m-.0781-9.2578s-15.2735-10.8985-21.7969-13.4766m-33.0469-19.5703-13.8672-8.4375m54.4141 128.086s-5.4297-7.6563-4.1015-11.2891m48.2031 69.3359s-8.789-17.6172-17.1875-21.0547m27.2656 78.2032s-3.086-9.4922-7.9688-12.5782m13.0469 2.1875s-8.2422-17.1875-14.9219-20.664m9.1798-2.3047s-2.9297-7.0703-5.5079-9.2969m-25.9765-13.75s-4.8047-14.336-10.4297-17.2656m157.4219 123.9844s-1.4454-15.8204-8.711-24.4141m-197.8906 54.6484s17.9687-15.2343 22.2265-20.586c4.2188-5.3515 7.5782-11.4843 7.1485-14.1015m-128.125-43.5156c2.2656.3516 9.8828-.664 12.9687-2.6563 3.086-1.9921 7.9688-3.5156 9.6485-3.789m13.8672-3.0859c.664-.3516 6.875-2.6172 10.1953-3.1641m-192.5 50.2343s32.1875-1.914 61.7187 28.7891m65.3125 101.3672c1.1328-.4297 19.6875-13.5547 24.8438-20.5469 5.1953-6.953 9.0625-12.9687 9.0625-12.9687m-32.461 24.6875s11.5235-8.4766 13.6328-11.9922m-92.3437 172.0313s16.25-1.9141 20.1563 1.6015m-11.5625 92.1875s6.7187-2.1484 1.8359-9.4531m-109.0234 2.0312s-2.9688-3.7109-2.3047-5.8984" style="fill:none;stroke-width:5.25;stroke-linecap:square;stroke-linejoin:round;stroke:#231f20;stroke-opacity:1;stroke-miterlimit:4" transform="matrix(.1 0 0 -.1 0 405.69)"/><path d="M401.3594 144.4531s2.9023-6.0742 4.957-7.0781c2.0547-1.004 5.9922-4.6563 13.7383.5938 7.746 5.25 11.7851 15.9882 11.8555 19.8632.0703 3.875-.4336 18.168-3.0313 22.4024-2.5937 4.2383-8.8516 14.2422-8.8516 14.2422l-1.0234 1.2656-2.6055 1.6289s-4.9336-7.5625-6.289-9.6758c-1.3516-2.1172-6.125-9.0234-9.6211-10.1484-3.4961-1.1211-10.1016-5.6446-11.1094-6.6211-1.0039-.9766-5.8906-8.2656-4.5195-12.707 1.371-4.4415 4.6094-10.3672 11.0664-11.8907 6.4531-1.5273 5.4336-1.875 5.4336-1.875" style="stroke:none;fill-rule:nonzero;fill:#fff;fill-opacity:1"/><path d="m368.5742 147.0586 1.0352-2.375s9.6875-9.6367 20.2265-6.5977c10.5352 3.0391 20.9258 20.9258 23.1602 29.1563 2.2305 8.2344 5.289 19.1562 5.289 19.1562s-3.8671-35.2773-17.293-46.4453c-13.4257-11.1719-28.7265-3.5351-29.8983-1.6054-1.168 1.9257-2.5196 8.7109-2.5196 8.7109" style="stroke:none;fill-rule:nonzero;fill:#231f20;fill-opacity:1"/><path d="M414.3086 136.6367c-.5078-.168-.9883-.289-1.4453-.3672-3.2735-.5312-5.418 1.0352-7 2.9297-1.5469 1.8867-2.207 3.9414-2.2383 3.9375l-1.1875-.3945 1.1406.5273-1 2.168-.289.625-.6797.0898c-.004.004-2.3399.3204-5.1211 1.2383-2.7852.8906-5.9219 2.4414-7.4102 4.5196-1.1289 1.5507-2.3398 4.0546-2.8008 6.8085-.7695 5.1485.5547 10.9844 9.793 14.8594 12.5508 5.1992 18.6445 17.5235 20.5664 22.1602 1.2344-1.2344 3.1992-3.3438 5.2969-6.1602 3.4883-4.6875 7.2734-11.289 8.539-18.875.3868-2.3086.543-4.7148.3946-7.1914-1.3086-19.2617-8.0274-23.8867-16.5586-26.875m2.6601 62.2422-1.4218 1.2461-.5938-1.793c-.0039-.0156-1.3594-4.121-4.5469-9.0195-3.1875-4.9102-8.168-10.5-15.289-13.414-10.1719-4.0743-12.3985-11.6407-11.3125-17.5938.543-3.2031 1.8867-5.9922 3.2539-7.875 3.5703-4.711 11.1797-6.2266 13.5117-6.6328l.6992-1.5156c.1446-.4024.9414-2.5625 2.6485-4.6641 1.8203-2.2774 4.9922-4.5625 9.3593-3.8203.5899.0976 1.207.2539 1.836.4687 9.168 2.9492 17.1758 9.293 18.2539 29.0899.164 2.6797-.004 5.2773-.4219 7.7617-2.7656 16.3047-15.9023 27.668-15.9765 27.7617" style="stroke:none;fill-rule:nonzero;fill:#231f20;fill-opacity:1"/><path d="M405.1445 145.9844s12.4532 4.5117 14.5352 3.871c0 0-13.0508-4.164-15.1875-5.328-2.1445-1.168.6523 1.457.6523 1.457m5.9961 9.8086s4.3672 1.2695 5.6211 2.3789c1.25 1.1054 5.1094 3.2812 6.3477 3.9375 0 0-4.9805-1.375-6.5977-2.4531-1.6172-1.0782-2.211-1.2696-3.4805-1.75-1.2656-.4805-2.5898-1.1524-2.5898-1.1524m3.9102 9.3671s3.203 1.797 4.6445 2.8438c1.4414 1.0508 3.0273 2.3047 3.582 2.7579.5508.453 1.7305 1.996 1.7305 1.996s-3.5938-1.5898-5.168-2.9296c-1.5703-1.3438-2.8398-1.8243-3.5234-2.0274-.6836-.207-1.2656-2.6406-1.2656-2.6406m4.2851 14.1055 1.9375 1.3125c.2031.3945-2.3008-.2032-2.3008-.2032s-.1875.0586-.4218-.164c-.2344-.2188-.5391-1.0781-.5391-1.0781m-15.2852-32.6563-3.75 6.293c-1.0507 1.4414-1.8515 4.0898-1.8515 4.0898l2.4648-3.9883 3.9805-6.0703s-.3477-.6015-.8438-.3242m4.0743 5.7148s-2.9336 1.9336-3.457 4.004c-.5235 2.0664-1.8243 6.0703-1.8985 7.0468-.0742.9766.0273 1.9805.0273 1.9805s1.8985-2.7383 2.1016-3.961c.2031-1.2226.9805-4.7734 1.4336-5.328.4492-.5548 3.0586-2.1837 3.0586-2.1837s.539-1.6172-1.2656-1.5586m3.3437 5.7696s.2188 3.539-.789 5.2578l-1.004 1.7187s-.543 1.0782-.6289 1.6016c-.0898.5234.2735 2.1133.5664 1.4453.293-.6719.9649-1.996.9649-1.996l.3945-.7423s.5235-2.0703 1.1797-2.7695c.6563-.6992.629-2.6797.4531-3.246-.1718-.5704-1.1367-1.2696-1.1367-1.2696m3.7539 9.2539s-1.3594 5.4336-1.9297 6.1445c-.5664.7149-.1601 1.5.1328 1.3711.293-.1289 1.4844-1.9062 1.5899-2.5195.1015-.6094 1.0312-1.8906.9336-2.3594-.1016-.4648-.7266-2.6367-.7266-2.6367m2.9805 9.0352c-.1485.3359-1.1953 2.3124-1.4024 3-.203.6835.043 1.3515.043 1.3515l1.1524-.4336s.3476.0586.3476-.4805c.004-.539-.1406-3.4375-.1406-3.4375" style="stroke:none;fill-rule:nonzero;fill:#231f20;fill-opacity:1"/><path d="M165.0742 310.3984c.3242-3.2617 29.4024-31.3789 52.0742-49.8632 22.668-18.4844 43.5586-48.9141 47.1407-73.875 3.582-24.957-5.9766-27.3907-5.9766-27.3907-21.5234-17.3593-23.668-35.3554-23.668-35.3554-6.2734-31.2032 14.6172-50.7461 14.6172-50.7461L210.1328 1.2266c-39.961 56.7382-87.3476 25.5586-87.3476 25.5586l-.1524.0234S86.4023 70.453 31.629 27.8438l-16.4414 80.2226s25.6836 12.6016 28.7813 44.2773c0 0 3.203 17.8399-12.3204 40.7227 0 0-8.4336 5.1133 2.2735 27.9414 10.707 22.8281 39.5625 45.8438 66.6406 56.9102 27.0781 11.0664 63.0938 29.4804 64.3594 32.5039" style="stroke:none;fill-rule:nonzero;fill:#b01f29;fill-opacity:1"/><path d="M165.0742 310.3984c.3242-3.2617 29.4024-31.3789 52.0742-49.8632 22.668-18.4844 43.5586-48.9141 47.1407-73.875 3.582-24.957-5.9766-27.3907-5.9766-27.3907-21.5234-17.3593-23.668-35.3554-23.668-35.3554-6.2734-31.2032 14.6172-50.7461 14.6172-50.7461l-7.5976-13.961S31.1758 215.3125 33.9219 221.0078c2.4492 5.0938 5.7187 10.2578 9.7226 15.2617 13.8477 17.297 35.918 33.0664 56.918 41.6485 27.0781 11.0664 63.0938 29.4804 64.3594 32.5039" style="stroke:none;fill-rule:nonzero;fill:#0d0e18;fill-opacity:1"/><path d="M241.668 59.207 33.9219 221.0117s5.7187 10.254 9.7226 15.2578" style="stroke:none;fill-rule:nonzero;fill:#0d0e18;fill-opacity:1"/><path d="m66.457 194.7695 9.4453-2.871c1.3165 4.8515 3.0352 8.3007 5.1602 10.3515 2.121 2.0508 4.6914 2.8516 7.711 2.4023 3.1953-.4765 5.453-1.8671 6.7656-4.168 1.3125-2.3007 1.7656-4.832 1.3554-7.5898-.2656-1.7695-.832-3.2265-1.6992-4.3672-.8672-1.1406-2.2187-2.043-4.0547-2.7109-1.2539-.4375-4.0664-1.1328-8.4336-2.082-5.621-1.2149-9.7265-3.129-12.3086-5.7383-3.6328-3.668-5.8906-8.4649-6.7734-14.3906-.5664-3.8125-.3906-7.4844.5352-11.0157.9257-3.5312 2.5937-6.3632 5.0078-8.5 2.4101-2.1328 5.5078-3.4843 9.2851-4.0468 6.1719-.918 11.125.4492 14.8555 4.1015 3.7344 3.6563 6.1914 8.9102 7.375 15.7657l-9.8281 2.1445c-1-3.7852-2.3243-6.414-3.9727-7.8945-1.6484-1.4766-3.871-2.0079-6.664-1.5899-2.8829.4297-5.0079 1.668-6.3711 3.7188-.879 1.3125-1.172 2.9414-.8829 4.8828.2618 1.7695.9805 3.211 2.1524 4.3242 1.4922 1.414 4.7812 2.6289 9.8672 3.6445 5.0898 1.0156 8.9297 2.2813 11.5195 3.789 2.5898 1.5118 4.7813 3.7774 6.5664 6.8009 1.789 3.0234 3.0352 6.9023 3.7422 11.6328.6406 4.289.457 8.4258-.5508 12.4023-1.0078 3.9805-2.8047 7.0938-5.3945 9.3399-2.5899 2.25-6.0195 3.6914-10.293 4.328-6.2148.9259-11.3125-.5468-15.2969-4.4257-3.9843-3.8789-6.9257-9.957-8.8203-18.2383m80.289-42.9922 10.3165 3.211c-.2578 8.3906-1.8047 14.8281-4.6484 19.3047-2.8399 4.4804-6.8985 7.1093-12.172 7.8984-6.5273.9727-12.4023-1.625-17.621-7.789-5.2148-6.168-8.6992-15.1407-10.457-26.922-1.8555-12.4609-1.1875-22.453 2.0117-29.9765 3.1953-7.5273 8.2383-11.8008 15.125-12.8281 6.0117-.8985 11.3008 1.082 15.8633 5.9336 2.7148 2.871 5.078 7.2148 7.0898 13.039l-9.293 5.043c-1.1601-3.7969-2.832-6.6797-5.0117-8.6523-2.1797-1.9727-4.586-2.7618-7.2265-2.3672-3.6446.543-6.3047 2.9765-7.9805 7.2969-1.6758 4.3242-1.8477 10.9453-.5156 19.8632 1.4101 9.4688 3.5351 16.043 6.3671 19.7266 2.836 3.6836 6.043 5.2578 9.6211 4.7266 2.6368-.3946 4.7149-2.0079 6.2344-4.8477 1.5196-2.836 2.2852-7.0547 2.2969-12.6602m25.2187-41.7539c1.2657 8.4766 3.5079 14.711 6.7305 18.7032 3.2266 3.9922 6.8164 5.6953 10.7734 5.1015 3.957-.5898 6.879-3.2422 8.7696-7.9648 1.8906-4.7149 2.1875-11.418.8945-20.1016-1.2773-8.5781-3.4687-14.793-6.5703-18.6484-3.0977-3.8516-6.6953-5.4766-10.7852-4.8672-4.0898.6133-7.0742 3.2383-8.9375 7.8867-1.8671 4.6445-2.1601 11.2734-.875 19.8906m-10.1523 2.0352c-1.1367-7.625-1.3438-14.1367-.6172-19.539.5508-3.9766 1.5664-7.629 3.0469-10.9493 1.4844-3.3164 3.2656-5.8789 5.3516-7.6875 2.7695-2.4297 6.1523-3.9453 10.1562-4.543 7.2422-1.078 13.5508 1.4805 18.9219 7.672 5.3672 6.1991 8.961 15.3905 10.7773 27.578 1.8047 12.086 1.0547 21.8672-2.2422 29.336-3.2968 7.4726-8.5586 11.7422-15.7812 12.8203-7.3086 1.0898-13.629-1.4414-18.957-7.5899-5.3282-6.1484-8.879-15.1796-10.6563-27.0976" style="stroke:none;fill-rule:nonzero;fill:#fff;fill-opacity:1"/><g style="fill:#231f20;fill-opacity:1"><use xlink:href="#a" x="413.629" y="258.382"/><use xlink:href="#b" x="427.5661" y="241.732"/><use xlink:href="#c" x="441.0269" y="225.651"/></g><use xlink:href="#d" x="16.4672" y="318.6146" style="fill:#231f20;fill-opacity:1"/><use xlink:href="#e" x="54.5699" y="348.3802" style="fill:#231f20;fill-opacity:1"/><use xlink:href="#f" x="95.3367" y="366.4759" style="fill:#231f20;fill-opacity:1"/><use xlink:href="#g" x="131.316" y="377.1681" style="fill:#231f20;fill-opacity:1"/><use xlink:href="#h" x="171.179" y="384.6927" style="fill:#231f20;fill-opacity:1"/><use xlink:href="#i" x="205.506" y="388.5959" style="fill:#231f20;fill-opacity:1"/><use xlink:href="#j" x="250.607" y="389.847" style="fill:#231f20;fill-opacity:1"/><use xlink:href="#k" x="285.996" y="388.2795" style="fill:#231f20;fill-opacity:1"/><use xlink:href="#l" x="321.659" y="384.3177" style="fill:#231f20;fill-opacity:1"/><use xlink:href="#m" x="363.382" y="375.9142" style="fill:#231f20;fill-opacity:1"/><use xlink:href="#n" x="404.625" y="362.5052" style="fill:#231f20;fill-opacity:1"/><use xlink:href="#o" x="442.638" y="344.2787" style="fill:#231f20;fill-opacity:1"/></svg>